<svg xmlns="http://www.w3.org/2000/svg" xmlns:xlink="http://www.w3.org/1999/xlink" width="80" zoomAndPan="magnify" viewBox="0 0 60 30.000001" height="40" preserveAspectRatio="xMidYMid meet" version="1.2"><defs><clipPath id="e5f3d38cd4"><path d="M 3 0 L 40.882812 0 L 40.882812 29 L 3 29 Z M 3 0 "/></clipPath></defs><g id="b1005664c1"><path style=" stroke:none;fill-rule:evenodd;fill:#607d8b;fill-opacity:1;" d="M 15.039062 0.890625 C 17.203125 1.351562 19.265625 0.9375 21.3125 0.402344 C 21.90625 0.25 22.496094 0.0898438 23.113281 0.0585938 C 24.046875 0.0117188 24.667969 0.390625 25.050781 1.246094 C 25.378906 1.984375 25.449219 2.769531 25.460938 3.554688 C 25.484375 5.519531 25.140625 7.445312 24.824219 9.371094 C 24.710938 10.058594 24.597656 10.746094 24.425781 11.433594 C 24.46875 10.492188 24.515625 9.554688 24.554688 8.613281 C 24.628906 6.78125 24.75 4.945312 24.515625 3.109375 C 24.457031 2.617188 24.355469 2.132812 24.144531 1.679688 C 23.832031 1.011719 23.390625 0.789062 22.660156 0.90625 C 21.621094 1.070312 20.625 1.402344 19.601562 1.625 C 18.117188 1.949219 16.679688 1.886719 15.3125 1.148438 C 15.238281 1.109375 15.160156 1.070312 15.085938 1.027344 C 15.070312 1.015625 15.066406 0.976562 15.039062 0.890625 Z M 15.039062 0.890625 "/><path style=" stroke:none;fill-rule:evenodd;fill:#2196f3;fill-opacity:1;" d="M 27.285156 5.566406 C 27.230469 6.175781 26.878906 6.433594 26.324219 6.53125 C 26.878906 6.625 27.21875 6.894531 27.300781 7.488281 C 27.390625 6.925781 27.683594 6.617188 28.253906 6.53125 C 27.648438 6.476562 27.410156 6.089844 27.285156 5.566406 Z M 27.285156 5.566406 "/><path style=" stroke:none;fill-rule:evenodd;fill:#2196f3;fill-opacity:1;" d="M 28.011719 1.535156 C 27.917969 2.601562 27.296875 3.058594 26.324219 3.230469 C 27.296875 3.394531 27.894531 3.871094 28.035156 4.910156 C 28.195312 3.921875 28.714844 3.378906 29.71875 3.226562 C 28.648438 3.128906 28.234375 2.457031 28.011719 1.535156 Z M 28.011719 1.535156 "/><path style=" stroke:none;fill-rule:evenodd;fill:#2196f3;fill-opacity:1;" d="M 29.402344 4.492188 C 29.351562 5.054688 29.023438 5.292969 28.511719 5.386719 C 29.023438 5.472656 29.339844 5.722656 29.414062 6.269531 C 29.496094 5.75 29.773438 5.460938 30.300781 5.382812 C 29.738281 5.332031 29.515625 4.976562 29.402344 4.492188 Z M 29.402344 4.492188 "/><g clip-rule="nonzero" clip-path="url(#e5f3d38cd4)"><path style=" stroke:none;fill-rule:evenodd;fill:#2196f3;fill-opacity:1;" d="M 23.171875 19.515625 C 22.519531 19.355469 21.070312 18.953125 19.238281 19.519531 C 18.023438 19.894531 17.152344 20.289062 16.589844 21.078125 C 15.859375 21.882812 13.796875 27.160156 12.75 27.308594 C 12.605469 27.328125 12.417969 27.21875 12.164062 27.035156 C 11.886719 26.828125 11.617188 26.566406 11.339844 26.230469 C 10.640625 25.378906 9.980469 24.394531 9.324219 23.21875 C 8.894531 22.449219 8.5 21.644531 8.117188 20.867188 C 7.980469 20.589844 6.804688 17.78125 6.648438 17.363281 C 6.273438 16.328125 5.882812 15.261719 5.605469 14.179688 C 5.144531 12.355469 4.675781 10.191406 4.71875 7.972656 C 4.761719 5.636719 5.601562 3.933594 7.289062 2.769531 C 9.667969 1.171875 13.773438 2.621094 13.851562 2.628906 L 13.878906 2.632812 C 15.191406 3.121094 16.679688 3.675781 18.15625 4.128906 C 19.574219 4.660156 20.6875 4.898438 21.757812 4.898438 C 22.234375 4.898438 23.617188 4.851562 23.164062 4.75 C 16.144531 3.15625 13.28125 0.417969 9.816406 0.417969 C 9.730469 0.417969 4.597656 1.363281 3.609375 4.921875 C 0.894531 14.675781 8.355469 25.894531 10.691406 27.867188 C 11.261719 28.347656 11.746094 28.679688 12.285156 28.835938 C 12.507812 28.898438 12.71875 28.933594 12.917969 28.933594 C 13.371094 28.933594 13.773438 28.761719 14.109375 28.425781 C 14.402344 28.238281 14.574219 27.96875 14.753906 27.664062 C 15.34375 26.675781 17.34375 22.644531 17.382812 22.570312 C 18.722656 20.054688 23.636719 20.933594 24.738281 21.171875 C 34.390625 23.273438 40.882812 21.753906 40.882812 21.753906 C 40.882812 21.753906 29.253906 21.015625 23.171875 19.515625 Z M 23.171875 19.515625 "/></g><g style="fill:#ffffff;fill-opacity:1;"><g transform="translate(11.178216, 14.441613)"><path style="stroke:none" d="M 4.132812 -3.746094 L 4.132812 0.25 L 3.050781 0.25 L 1.105469 -2.117188 L 1.300781 -2.273438 L 1.550781 -2.273438 L 1.550781 0.25 L 0.191406 0.25 L 0.191406 -4 L 1.28125 -4 L 3.21875 -1.632812 L 3.023438 -1.472656 L 2.773438 -1.472656 L 2.773438 -4 L 4.132812 -4 Z M 3.628906 -3.746094 L 3.882812 -3.746094 L 3.882812 -3.496094 L 3.023438 -3.496094 L 3.023438 -3.746094 L 3.277344 -3.746094 L 3.277344 -0.769531 L 0.96875 -3.589844 L 1.160156 -3.746094 L 1.160156 -3.496094 L 0.445312 -3.496094 L 0.445312 -3.746094 L 0.695312 -3.746094 L 0.695312 0 L 0.445312 0 L 0.445312 -0.25 L 1.300781 -0.25 L 1.300781 0 L 1.050781 0 L 1.050781 -2.976562 L 3.363281 -0.160156 L 3.167969 0 L 3.167969 -0.25 L 3.882812 -0.25 L 3.882812 0 L 3.628906 0 Z M 3.628906 -3.746094 "/></g></g><g style="fill:#ffffff;fill-opacity:1;"><g transform="translate(15.501368, 14.441613)"><path style="stroke:none" d="M 2.914062 -0.550781 L 1.171875 -0.550781 L 1.171875 -0.804688 L 1.40625 -0.707031 L 1.007812 0.25 L -0.433594 0.25 L 1.460938 -4 L 2.640625 -4 L 4.542969 0.25 L 3.078125 0.25 L 2.679688 -0.707031 L 2.914062 -0.804688 Z M 3.078125 -1.054688 L 3.476562 -0.0976562 L 3.242188 0 L 3.242188 -0.25 L 4.152344 -0.25 L 4.152344 0 L 3.925781 0.101562 L 2.25 -3.644531 L 2.480469 -3.746094 L 2.480469 -3.496094 L 1.621094 -3.496094 L 1.621094 -3.746094 L 1.851562 -3.644531 L 0.179688 0.101562 L -0.046875 0 L -0.046875 -0.25 L 0.839844 -0.25 L 0.839844 0 L 0.609375 -0.0976562 L 1.003906 -1.054688 Z M 2.40625 -1.367188 L 1.8125 -2.800781 L 2.046875 -2.894531 L 2.277344 -2.800781 L 1.683594 -1.367188 L 1.449219 -1.460938 L 1.449219 -1.710938 L 2.640625 -1.710938 L 2.640625 -1.460938 Z M 3.015625 -1.210938 L 1.074219 -1.210938 L 2.046875 -3.550781 L 2.871094 -1.558594 Z M 3.015625 -1.210938 "/></g></g><g style="fill:#ffffff;fill-opacity:1;"><g transform="translate(19.599801, 14.441613)"><path style="stroke:none" d="M 1.21875 -2.789062 L -0.230469 -2.789062 L -0.230469 -4 L 3.539062 -4 L 3.539062 -2.789062 L 2.085938 -2.789062 L 2.085938 -3.039062 L 2.339844 -3.039062 L 2.339844 0.25 L 0.96875 0.25 L 0.96875 -3.039062 L 1.21875 -3.039062 Z M 1.472656 -3.292969 L 1.472656 0 L 1.21875 0 L 1.21875 -0.25 L 2.085938 -0.25 L 2.085938 0 L 1.835938 0 L 1.835938 -3.292969 L 3.285156 -3.292969 L 3.285156 -3.039062 L 3.035156 -3.039062 L 3.035156 -3.746094 L 3.285156 -3.746094 L 3.285156 -3.496094 L 0.0195312 -3.496094 L 0.0195312 -3.746094 L 0.273438 -3.746094 L 0.273438 -3.039062 L 0.0195312 -3.039062 L 0.0195312 -3.292969 Z M 1.472656 -3.292969 "/></g></g><g style="fill:#ffffff;fill-opacity:1;"><g transform="translate(22.906369, 14.441613)"><path style="stroke:none" d="M 2.109375 0.316406 C 1.503906 0.316406 1.027344 0.144531 0.683594 -0.203125 C 0.335938 -0.546875 0.160156 -1.03125 0.160156 -1.648438 L 0.160156 -4 L 1.53125 -4 L 1.53125 -1.679688 C 1.53125 -1.40625 1.582031 -1.207031 1.679688 -1.085938 C 1.769531 -0.980469 1.914062 -0.925781 2.113281 -0.925781 C 2.308594 -0.925781 2.453125 -0.976562 2.546875 -1.082031 C 2.648438 -1.199219 2.699219 -1.398438 2.699219 -1.679688 L 2.699219 -4 L 4.058594 -4 L 4.058594 -1.648438 C 4.058594 -1.03125 3.882812 -0.546875 3.535156 -0.203125 C 3.1875 0.144531 2.714844 0.316406 2.109375 0.316406 Z M 2.109375 -0.1875 C 2.574219 -0.1875 2.933594 -0.3125 3.183594 -0.558594 C 3.429688 -0.804688 3.554688 -1.167969 3.554688 -1.648438 L 3.554688 -3.746094 L 3.804688 -3.746094 L 3.804688 -3.496094 L 2.949219 -3.496094 L 2.949219 -3.746094 L 3.199219 -3.746094 L 3.199219 -1.679688 C 3.199219 -1.273438 3.109375 -0.960938 2.925781 -0.753906 C 2.730469 -0.53125 2.460938 -0.421875 2.113281 -0.421875 C 1.757812 -0.421875 1.484375 -0.539062 1.296875 -0.765625 C 1.117188 -0.980469 1.027344 -1.285156 1.027344 -1.679688 L 1.027344 -3.746094 L 1.28125 -3.746094 L 1.28125 -3.496094 L 0.414062 -3.496094 L 0.414062 -3.746094 L 0.664062 -3.746094 L 0.664062 -1.648438 C 0.664062 -1.167969 0.789062 -0.804688 1.035156 -0.558594 C 1.285156 -0.3125 1.644531 -0.1875 2.109375 -0.1875 Z M 2.109375 -0.1875 "/></g></g><g style="fill:#ffffff;fill-opacity:1;"><g transform="translate(27.122511, 14.441613)"><path style="stroke:none" d="M 2.625 0.144531 L 1.902344 -0.902344 L 2.109375 -1.042969 L 2.109375 -0.792969 L 1.3125 -0.792969 L 1.3125 -1.042969 L 1.5625 -1.042969 L 1.5625 0.25 L 0.191406 0.25 L 0.191406 -4 L 2.066406 -4 C 2.433594 -4 2.757812 -3.933594 3.035156 -3.808594 C 3.324219 -3.679688 3.546875 -3.492188 3.707031 -3.246094 C 3.867188 -3 3.945312 -2.714844 3.945312 -2.386719 C 3.945312 -2.058594 3.863281 -1.773438 3.703125 -1.527344 C 3.539062 -1.285156 3.316406 -1.101562 3.023438 -0.972656 L 2.921875 -1.203125 L 3.128906 -1.347656 L 4.246094 0.25 L 2.699219 0.25 Z M 3.039062 -0.144531 L 2.832031 0 L 2.832031 -0.25 L 3.761719 -0.25 L 3.761719 0 L 3.558594 0.144531 L 2.542969 -1.3125 L 2.824219 -1.433594 C 3.023438 -1.523438 3.175781 -1.644531 3.285156 -1.804688 C 3.390625 -1.964844 3.441406 -2.160156 3.441406 -2.386719 C 3.441406 -2.617188 3.390625 -2.8125 3.285156 -2.972656 C 3.179688 -3.136719 3.027344 -3.261719 2.828125 -3.351562 C 2.617188 -3.449219 2.363281 -3.496094 2.066406 -3.496094 L 0.445312 -3.496094 L 0.445312 -3.746094 L 0.695312 -3.746094 L 0.695312 0 L 0.445312 0 L 0.445312 -0.25 L 1.3125 -0.25 L 1.3125 0 L 1.058594 0 L 1.058594 -1.296875 L 2.242188 -1.296875 Z M 2.566406 -2.386719 C 2.566406 -2.519531 2.527344 -2.617188 2.453125 -2.679688 C 2.363281 -2.753906 2.21875 -2.789062 2.019531 -2.789062 L 1.3125 -2.789062 L 1.3125 -3.039062 L 1.5625 -3.039062 L 1.5625 -1.734375 L 1.3125 -1.734375 L 1.3125 -1.984375 L 2.019531 -1.984375 C 2.21875 -1.984375 2.363281 -2.023438 2.449219 -2.097656 C 2.527344 -2.160156 2.566406 -2.257812 2.566406 -2.386719 Z M 3.066406 -2.386719 C 3.066406 -2.101562 2.96875 -1.878906 2.773438 -1.714844 C 2.589844 -1.558594 2.339844 -1.484375 2.019531 -1.484375 L 1.058594 -1.484375 L 1.058594 -3.292969 L 2.019531 -3.292969 C 2.339844 -3.292969 2.589844 -3.214844 2.773438 -3.066406 C 2.96875 -2.902344 3.066406 -2.675781 3.066406 -2.386719 Z M 3.066406 -2.386719 "/></g></g><g style="fill:#ffffff;fill-opacity:1;"><g transform="translate(31.05508, 14.441613)"><path style="stroke:none" d="M 2.914062 -0.550781 L 1.171875 -0.550781 L 1.171875 -0.804688 L 1.40625 -0.707031 L 1.007812 0.25 L -0.433594 0.25 L 1.460938 -4 L 2.640625 -4 L 4.542969 0.25 L 3.078125 0.25 L 2.679688 -0.707031 L 2.914062 -0.804688 Z M 3.078125 -1.054688 L 3.476562 -0.0976562 L 3.242188 0 L 3.242188 -0.25 L 4.152344 -0.25 L 4.152344 0 L 3.925781 0.101562 L 2.25 -3.644531 L 2.480469 -3.746094 L 2.480469 -3.496094 L 1.621094 -3.496094 L 1.621094 -3.746094 L 1.851562 -3.644531 L 0.179688 0.101562 L -0.046875 0 L -0.046875 -0.25 L 0.839844 -0.25 L 0.839844 0 L 0.609375 -0.0976562 L 1.003906 -1.054688 Z M 2.40625 -1.367188 L 1.8125 -2.800781 L 2.046875 -2.894531 L 2.277344 -2.800781 L 1.683594 -1.367188 L 1.449219 -1.460938 L 1.449219 -1.710938 L 2.640625 -1.710938 L 2.640625 -1.460938 Z M 3.015625 -1.210938 L 1.074219 -1.210938 L 2.046875 -3.550781 L 2.871094 -1.558594 Z M 3.015625 -1.210938 "/></g></g><g style="fill:#ffffff;fill-opacity:1;"><g transform="translate(35.153513, 14.441613)"><path style="stroke:none" d="M 0.445312 -4 L 1.5625 -4 L 1.5625 -0.707031 L 1.3125 -0.707031 L 1.3125 -0.957031 L 3.441406 -0.957031 L 3.441406 0.25 L 0.191406 0.25 L 0.191406 -4 Z M 0.445312 -3.496094 L 0.445312 -3.746094 L 0.695312 -3.746094 L 0.695312 0 L 0.445312 0 L 0.445312 -0.25 L 3.191406 -0.25 L 3.191406 0 L 2.941406 0 L 2.941406 -0.707031 L 3.191406 -0.707031 L 3.191406 -0.457031 L 1.058594 -0.457031 L 1.058594 -3.746094 L 1.3125 -3.746094 L 1.3125 -3.496094 Z M 0.445312 -3.496094 "/></g></g><g style="fill:#ffffff;fill-opacity:1;"><g transform="translate(38.385174, 14.441613)"><path style="stroke:none" d=""/></g></g><g style="fill:#ffffff;fill-opacity:1;"><g transform="translate(39.899346, 14.441613)"><path style="stroke:none" d="M 0.445312 -4 L 2.148438 -4 C 2.59375 -4 2.988281 -3.910156 3.335938 -3.738281 C 3.691406 -3.5625 3.96875 -3.3125 4.167969 -2.988281 C 4.363281 -2.667969 4.464844 -2.296875 4.464844 -1.875 C 4.464844 -1.453125 4.363281 -1.078125 4.167969 -0.757812 C 3.96875 -0.433594 3.691406 -0.183594 3.335938 -0.0078125 C 2.988281 0.164062 2.59375 0.25 2.148438 0.25 L 0.191406 0.25 L 0.191406 -4 Z M 0.445312 -3.496094 L 0.445312 -3.746094 L 0.695312 -3.746094 L 0.695312 0 L 0.445312 0 L 0.445312 -0.25 L 2.148438 -0.25 C 2.515625 -0.25 2.835938 -0.320312 3.113281 -0.457031 C 3.382812 -0.589844 3.589844 -0.777344 3.738281 -1.019531 C 3.886719 -1.261719 3.960938 -1.546875 3.960938 -1.875 C 3.960938 -2.199219 3.886719 -2.484375 3.738281 -2.726562 C 3.589844 -2.96875 3.382812 -3.15625 3.113281 -3.289062 C 2.835938 -3.425781 2.515625 -3.496094 2.148438 -3.496094 Z M 2.105469 -0.964844 C 2.414062 -0.964844 2.652344 -1.042969 2.828125 -1.207031 C 3 -1.367188 3.085938 -1.589844 3.085938 -1.875 C 3.085938 -2.15625 3 -2.378906 2.828125 -2.539062 C 2.652344 -2.703125 2.414062 -2.785156 2.105469 -2.785156 L 1.3125 -2.785156 L 1.3125 -3.035156 L 1.5625 -3.035156 L 1.5625 -0.710938 L 1.3125 -0.710938 L 1.3125 -0.964844 Z M 2.105469 -0.460938 L 1.058594 -0.460938 L 1.058594 -3.285156 L 2.105469 -3.285156 C 2.542969 -3.285156 2.902344 -3.160156 3.171875 -2.90625 C 3.449219 -2.648438 3.585938 -2.304688 3.585938 -1.875 C 3.585938 -1.445312 3.449219 -1.101562 3.171875 -0.84375 C 2.902344 -0.589844 2.542969 -0.460938 2.105469 -0.460938 Z M 2.105469 -0.460938 "/></g></g><g style="fill:#ffffff;fill-opacity:1;"><g transform="translate(44.318804, 14.441613)"><path style="stroke:none" d="M 3.597656 -0.695312 L 3.597656 0.25 L 0.191406 0.25 L 0.191406 -4 L 3.527344 -4 L 3.527344 -2.800781 L 1.304688 -2.800781 L 1.304688 -3.050781 L 1.558594 -3.050781 L 1.558594 -2.238281 L 1.304688 -2.238281 L 1.304688 -2.488281 L 3.296875 -2.488281 L 3.296875 -1.3125 L 1.304688 -1.3125 L 1.304688 -1.5625 L 1.558594 -1.5625 L 1.558594 -0.695312 L 1.304688 -0.695312 L 1.304688 -0.945312 L 3.597656 -0.945312 Z M 3.09375 -0.695312 L 3.347656 -0.695312 L 3.347656 -0.445312 L 1.054688 -0.445312 L 1.054688 -1.8125 L 3.046875 -1.8125 L 3.046875 -1.5625 L 2.796875 -1.5625 L 2.796875 -2.238281 L 3.046875 -2.238281 L 3.046875 -1.988281 L 1.054688 -1.988281 L 1.054688 -3.300781 L 3.277344 -3.300781 L 3.277344 -3.050781 L 3.023438 -3.050781 L 3.023438 -3.746094 L 3.277344 -3.746094 L 3.277344 -3.496094 L 0.445312 -3.496094 L 0.445312 -3.746094 L 0.695312 -3.746094 L 0.695312 0 L 0.445312 0 L 0.445312 -0.25 L 3.347656 -0.25 L 3.347656 0 L 3.09375 0 Z M 3.09375 -0.695312 "/></g></g><g style="fill:#ffffff;fill-opacity:1;"><g transform="translate(47.908945, 14.441613)"><path style="stroke:none" d="M 4.132812 -3.746094 L 4.132812 0.25 L 3.050781 0.25 L 1.105469 -2.117188 L 1.300781 -2.273438 L 1.550781 -2.273438 L 1.550781 0.25 L 0.191406 0.25 L 0.191406 -4 L 1.28125 -4 L 3.21875 -1.632812 L 3.023438 -1.472656 L 2.773438 -1.472656 L 2.773438 -4 L 4.132812 -4 Z M 3.628906 -3.746094 L 3.882812 -3.746094 L 3.882812 -3.496094 L 3.023438 -3.496094 L 3.023438 -3.746094 L 3.277344 -3.746094 L 3.277344 -0.769531 L 0.96875 -3.589844 L 1.160156 -3.746094 L 1.160156 -3.496094 L 0.445312 -3.496094 L 0.445312 -3.746094 L 0.695312 -3.746094 L 0.695312 0 L 0.445312 0 L 0.445312 -0.25 L 1.300781 -0.25 L 1.300781 0 L 1.050781 0 L 1.050781 -2.976562 L 3.363281 -0.160156 L 3.167969 0 L 3.167969 -0.25 L 3.882812 -0.25 L 3.882812 0 L 3.628906 0 Z M 3.628906 -3.746094 "/></g></g><g style="fill:#ffffff;fill-opacity:1;"><g transform="translate(52.232097, 14.441613)"><path style="stroke:none" d="M 1.21875 -2.789062 L -0.230469 -2.789062 L -0.230469 -4 L 3.539062 -4 L 3.539062 -2.789062 L 2.085938 -2.789062 L 2.085938 -3.039062 L 2.339844 -3.039062 L 2.339844 0.25 L 0.96875 0.25 L 0.96875 -3.039062 L 1.21875 -3.039062 Z M 1.472656 -3.292969 L 1.472656 0 L 1.21875 0 L 1.21875 -0.25 L 2.085938 -0.25 L 2.085938 0 L 1.835938 0 L 1.835938 -3.292969 L 3.285156 -3.292969 L 3.285156 -3.039062 L 3.035156 -3.039062 L 3.035156 -3.746094 L 3.285156 -3.746094 L 3.285156 -3.496094 L 0.0195312 -3.496094 L 0.0195312 -3.746094 L 0.273438 -3.746094 L 0.273438 -3.039062 L 0.0195312 -3.039062 L 0.0195312 -3.292969 Z M 1.472656 -3.292969 "/></g></g><g style="fill:#ffffff;fill-opacity:1;"><g transform="translate(55.539164, 14.441613)"><path style="stroke:none" d=""/></g></g><g style="fill:#2196f3;fill-opacity:1;"><g transform="translate(11.178216, 14.441613)"><path style="stroke:none" d="M 3.890625 -3.75 L 3.890625 0 L 3.171875 0 L 1.296875 -2.28125 L 1.296875 0 L 0.4375 0 L 0.4375 -3.75 L 1.15625 -3.75 L 3.03125 -1.46875 L 3.03125 -3.75 Z M 3.890625 -3.75 "/></g></g><g style="fill:#2196f3;fill-opacity:1;"><g transform="translate(15.501368, 14.441613)"><path style="stroke:none" d="M 2.921875 -0.796875 L 1.171875 -0.796875 L 0.84375 0 L -0.046875 0 L 1.625 -3.75 L 2.484375 -3.75 L 4.15625 0 L 3.25 0 Z M 2.640625 -1.46875 L 2.046875 -2.90625 L 1.453125 -1.46875 Z M 2.640625 -1.46875 "/></g></g><g style="fill:#2196f3;fill-opacity:1;"><g transform="translate(19.599801, 14.441613)"><path style="stroke:none" d="M 1.21875 -3.046875 L 0.015625 -3.046875 L 0.015625 -3.75 L 3.296875 -3.75 L 3.296875 -3.046875 L 2.09375 -3.046875 L 2.09375 0 L 1.21875 0 Z M 1.21875 -3.046875 "/></g></g><g style="fill:#2196f3;fill-opacity:1;"><g transform="translate(22.906369, 14.441613)"><path style="stroke:none" d="M 2.109375 0.0625 C 1.578125 0.0625 1.160156 -0.0820312 0.859375 -0.375 C 0.554688 -0.675781 0.40625 -1.101562 0.40625 -1.65625 L 0.40625 -3.75 L 1.28125 -3.75 L 1.28125 -1.6875 C 1.28125 -1.007812 1.554688 -0.671875 2.109375 -0.671875 C 2.390625 -0.671875 2.597656 -0.75 2.734375 -0.90625 C 2.878906 -1.070312 2.953125 -1.332031 2.953125 -1.6875 L 2.953125 -3.75 L 3.8125 -3.75 L 3.8125 -1.65625 C 3.8125 -1.101562 3.660156 -0.675781 3.359375 -0.375 C 3.066406 -0.0820312 2.648438 0.0625 2.109375 0.0625 Z M 2.109375 0.0625 "/></g></g><g style="fill:#2196f3;fill-opacity:1;"><g transform="translate(27.122511, 14.441613)"><path style="stroke:none" d="M 2.828125 0 L 2.109375 -1.046875 L 1.3125 -1.046875 L 1.3125 0 L 0.4375 0 L 0.4375 -3.75 L 2.0625 -3.75 C 2.394531 -3.75 2.679688 -3.691406 2.921875 -3.578125 C 3.171875 -3.472656 3.363281 -3.316406 3.5 -3.109375 C 3.632812 -2.910156 3.703125 -2.671875 3.703125 -2.390625 C 3.703125 -2.109375 3.632812 -1.863281 3.5 -1.65625 C 3.363281 -1.457031 3.171875 -1.304688 2.921875 -1.203125 L 3.765625 0 Z M 2.8125 -2.390625 C 2.8125 -2.597656 2.742188 -2.757812 2.609375 -2.875 C 2.472656 -2.988281 2.273438 -3.046875 2.015625 -3.046875 L 1.3125 -3.046875 L 1.3125 -1.734375 L 2.015625 -1.734375 C 2.273438 -1.734375 2.472656 -1.789062 2.609375 -1.90625 C 2.742188 -2.019531 2.8125 -2.179688 2.8125 -2.390625 Z M 2.8125 -2.390625 "/></g></g><g style="fill:#2196f3;fill-opacity:1;"><g transform="translate(31.05508, 14.441613)"><path style="stroke:none" d="M 2.921875 -0.796875 L 1.171875 -0.796875 L 0.84375 0 L -0.046875 0 L 1.625 -3.75 L 2.484375 -3.75 L 4.15625 0 L 3.25 0 Z M 2.640625 -1.46875 L 2.046875 -2.90625 L 1.453125 -1.46875 Z M 2.640625 -1.46875 "/></g></g><g style="fill:#2196f3;fill-opacity:1;"><g transform="translate(35.153513, 14.441613)"><path style="stroke:none" d="M 0.4375 -3.75 L 1.3125 -3.75 L 1.3125 -0.703125 L 3.1875 -0.703125 L 3.1875 0 L 0.4375 0 Z M 0.4375 -3.75 "/></g></g><g style="fill:#2196f3;fill-opacity:1;"><g transform="translate(38.385174, 14.441613)"><path style="stroke:none" d=""/></g></g><g style="fill:#2196f3;fill-opacity:1;"><g transform="translate(39.899346, 14.441613)"><path style="stroke:none" d="M 0.4375 -3.75 L 2.15625 -3.75 C 2.5625 -3.75 2.921875 -3.671875 3.234375 -3.515625 C 3.546875 -3.359375 3.785156 -3.140625 3.953125 -2.859375 C 4.128906 -2.578125 4.21875 -2.25 4.21875 -1.875 C 4.21875 -1.5 4.128906 -1.171875 3.953125 -0.890625 C 3.785156 -0.609375 3.546875 -0.390625 3.234375 -0.234375 C 2.921875 -0.078125 2.5625 0 2.15625 0 L 0.4375 0 Z M 2.109375 -0.71875 C 2.484375 -0.71875 2.78125 -0.820312 3 -1.03125 C 3.226562 -1.238281 3.34375 -1.519531 3.34375 -1.875 C 3.34375 -2.226562 3.226562 -2.507812 3 -2.71875 C 2.78125 -2.925781 2.484375 -3.03125 2.109375 -3.03125 L 1.3125 -3.03125 L 1.3125 -0.71875 Z M 2.109375 -0.71875 "/></g></g><g style="fill:#2196f3;fill-opacity:1;"><g transform="translate(44.318804, 14.441613)"><path style="stroke:none" d="M 3.34375 -0.703125 L 3.34375 0 L 0.4375 0 L 0.4375 -3.75 L 3.28125 -3.75 L 3.28125 -3.0625 L 1.3125 -3.0625 L 1.3125 -2.234375 L 3.046875 -2.234375 L 3.046875 -1.5625 L 1.3125 -1.5625 L 1.3125 -0.703125 Z M 3.34375 -0.703125 "/></g></g><g style="fill:#2196f3;fill-opacity:1;"><g transform="translate(47.908945, 14.441613)"><path style="stroke:none" d="M 3.890625 -3.75 L 3.890625 0 L 3.171875 0 L 1.296875 -2.28125 L 1.296875 0 L 0.4375 0 L 0.4375 -3.75 L 1.15625 -3.75 L 3.03125 -1.46875 L 3.03125 -3.75 Z M 3.890625 -3.75 "/></g></g><g style="fill:#2196f3;fill-opacity:1;"><g transform="translate(52.232097, 14.441613)"><path style="stroke:none" d="M 1.21875 -3.046875 L 0.015625 -3.046875 L 0.015625 -3.75 L 3.296875 -3.75 L 3.296875 -3.046875 L 2.09375 -3.046875 L 2.09375 0 L 1.21875 0 Z M 1.21875 -3.046875 "/></g></g><g style="fill:#2196f3;fill-opacity:1;"><g transform="translate(55.539164, 14.441613)"><path style="stroke:none" d=""/></g></g><g style="fill:#ffffff;fill-opacity:1;"><g transform="translate(11.178216, 18.587034)"><path style="stroke:none" d=""/></g></g><g style="fill:#ffffff;fill-opacity:1;"><g transform="translate(12.37502, 18.587034)"><path style="stroke:none" d="M 1.765625 0.222656 C 1.441406 0.222656 1.144531 0.152344 0.878906 0.00390625 C 0.609375 -0.144531 0.402344 -0.347656 0.25 -0.609375 C 0.0976562 -0.867188 0.0234375 -1.160156 0.0234375 -1.480469 C 0.0234375 -1.800781 0.0976562 -2.089844 0.25 -2.351562 C 0.402344 -2.613281 0.613281 -2.816406 0.882812 -2.964844 C 1.148438 -3.109375 1.445312 -3.183594 1.769531 -3.183594 C 2.015625 -3.183594 2.242188 -3.140625 2.453125 -3.058594 C 2.667969 -2.972656 2.847656 -2.851562 3 -2.6875 L 3.128906 -2.546875 L 2.652344 -2.074219 L 2.511719 -2.214844 C 2.320312 -2.410156 2.078125 -2.507812 1.78125 -2.507812 C 1.578125 -2.507812 1.398438 -2.460938 1.238281 -2.371094 C 1.078125 -2.28125 0.953125 -2.160156 0.863281 -2.003906 C 0.773438 -1.851562 0.726562 -1.675781 0.726562 -1.480469 C 0.726562 -1.285156 0.773438 -1.109375 0.863281 -0.953125 C 0.953125 -0.800781 1.078125 -0.675781 1.238281 -0.585938 C 1.398438 -0.496094 1.578125 -0.453125 1.78125 -0.453125 C 2.078125 -0.453125 2.324219 -0.550781 2.511719 -0.746094 L 2.652344 -0.890625 L 3.128906 -0.414062 L 3 -0.277344 C 2.847656 -0.113281 2.667969 0.0117188 2.449219 0.0976562 C 2.238281 0.179688 2.011719 0.222656 1.765625 0.222656 Z M 1.765625 -0.171875 C 1.960938 -0.171875 2.140625 -0.207031 2.304688 -0.269531 C 2.464844 -0.335938 2.597656 -0.425781 2.707031 -0.542969 L 2.851562 -0.410156 L 2.714844 -0.269531 L 2.515625 -0.46875 L 2.65625 -0.609375 L 2.796875 -0.472656 C 2.53125 -0.195312 2.191406 -0.0546875 1.78125 -0.0546875 C 1.511719 -0.0546875 1.265625 -0.117188 1.042969 -0.242188 C 0.820312 -0.367188 0.648438 -0.535156 0.519531 -0.753906 C 0.394531 -0.972656 0.332031 -1.210938 0.332031 -1.480469 C 0.332031 -1.746094 0.394531 -1.988281 0.519531 -2.203125 C 0.648438 -2.421875 0.820312 -2.59375 1.042969 -2.71875 C 1.265625 -2.839844 1.511719 -2.902344 1.78125 -2.902344 C 2.1875 -2.902344 2.527344 -2.765625 2.796875 -2.492188 L 2.65625 -2.355469 L 2.515625 -2.496094 L 2.714844 -2.691406 L 2.851562 -2.554688 L 2.707031 -2.417969 C 2.597656 -2.539062 2.464844 -2.628906 2.308594 -2.691406 C 2.144531 -2.753906 1.964844 -2.785156 1.769531 -2.785156 C 1.511719 -2.785156 1.277344 -2.730469 1.070312 -2.617188 C 0.867188 -2.503906 0.707031 -2.347656 0.59375 -2.152344 C 0.476562 -1.953125 0.417969 -1.726562 0.417969 -1.480469 C 0.417969 -1.230469 0.476562 -1.007812 0.59375 -0.808594 C 0.707031 -0.609375 0.867188 -0.453125 1.070312 -0.34375 C 1.277344 -0.230469 1.507812 -0.171875 1.765625 -0.171875 Z M 1.765625 -0.171875 "/></g></g><g style="fill:#ffffff;fill-opacity:1;"><g transform="translate(15.412109, 18.587034)"><path style="stroke:none" d="M 0.480469 -3.15625 L 0.992188 -3.15625 L 0.992188 -0.269531 L 0.792969 -0.269531 L 0.792969 -0.46875 L 2.648438 -0.46875 L 2.648438 0.199219 L 0.285156 0.199219 L 0.285156 -3.15625 Z M 0.480469 -2.761719 L 0.480469 -2.957031 L 0.679688 -2.957031 L 0.679688 0 L 0.480469 0 L 0.480469 -0.199219 L 2.453125 -0.199219 L 2.453125 0 L 2.253906 0 L 2.253906 -0.269531 L 2.453125 -0.269531 L 2.453125 -0.0742188 L 0.597656 -0.0742188 L 0.597656 -2.957031 L 0.792969 -2.957031 L 0.792969 -2.761719 Z M 0.480469 -2.761719 "/></g></g><g style="fill:#ffffff;fill-opacity:1;"><g transform="translate(17.900072, 18.587034)"><path style="stroke:none" d="M 0.480469 -3.15625 L 0.992188 -3.15625 L 0.992188 0.199219 L 0.285156 0.199219 L 0.285156 -3.15625 Z M 0.480469 -2.761719 L 0.480469 -2.957031 L 0.679688 -2.957031 L 0.679688 0 L 0.480469 0 L 0.480469 -0.199219 L 0.792969 -0.199219 L 0.792969 0 L 0.597656 0 L 0.597656 -2.957031 L 0.792969 -2.957031 L 0.792969 -2.761719 Z M 0.941406 -3.921875 L 1.929688 -3.921875 L 0.726562 -3 L -0.152344 -3 L 0.867188 -3.921875 Z M 0.941406 -3.527344 L 0.941406 -3.722656 L 1.074219 -3.578125 L 0.496094 -3.050781 L 0.363281 -3.199219 L 0.363281 -3.398438 L 0.660156 -3.398438 L 0.660156 -3.199219 L 0.539062 -3.355469 L 1.222656 -3.882812 L 1.34375 -3.722656 L 1.34375 -3.527344 Z M 0.941406 -3.527344 "/></g></g><g style="fill:#ffffff;fill-opacity:1;"><g transform="translate(19.175733, 18.587034)"><path style="stroke:none" d="M 3.152344 -2.957031 L 3.152344 0.199219 L 2.601562 0.199219 L 0.640625 -2.277344 L 0.792969 -2.402344 L 0.992188 -2.402344 L 0.992188 0.199219 L 0.285156 0.199219 L 0.285156 -3.15625 L 0.835938 -3.15625 L 2.800781 -0.679688 L 2.644531 -0.558594 L 2.449219 -0.558594 L 2.449219 -3.15625 L 3.152344 -3.15625 Z M 2.757812 -2.957031 L 2.953125 -2.957031 L 2.953125 -2.761719 L 2.644531 -2.761719 L 2.644531 -2.957031 L 2.84375 -2.957031 L 2.84375 0.0117188 L 0.585938 -2.835938 L 0.738281 -2.957031 L 0.738281 -2.761719 L 0.480469 -2.761719 L 0.480469 -2.957031 L 0.679688 -2.957031 L 0.679688 0 L 0.480469 0 L 0.480469 -0.199219 L 0.792969 -0.199219 L 0.792969 0 L 0.597656 0 L 0.597656 -2.96875 L 2.851562 -0.125 L 2.695312 0 L 2.695312 -0.199219 L 2.953125 -0.199219 L 2.953125 0 L 2.757812 0 Z M 2.757812 -2.957031 "/></g></g><g style="fill:#ffffff;fill-opacity:1;"><g transform="translate(22.60988, 18.587034)"><path style="stroke:none" d="M 0.285156 -3.15625 L 0.992188 -3.15625 L 0.992188 0.199219 L 0.285156 0.199219 Z M 0.285156 -3.15625 "/></g></g><g style="fill:#ffffff;fill-opacity:1;"><g transform="translate(23.88554, 18.587034)"><path style="stroke:none" d="M 1.765625 0.222656 C 1.441406 0.222656 1.144531 0.152344 0.878906 0.00390625 C 0.609375 -0.144531 0.402344 -0.347656 0.25 -0.609375 C 0.0976562 -0.867188 0.0234375 -1.160156 0.0234375 -1.480469 C 0.0234375 -1.800781 0.0976562 -2.089844 0.25 -2.351562 C 0.402344 -2.613281 0.613281 -2.816406 0.882812 -2.964844 C 1.148438 -3.109375 1.445312 -3.183594 1.769531 -3.183594 C 2.015625 -3.183594 2.242188 -3.140625 2.453125 -3.058594 C 2.667969 -2.972656 2.847656 -2.851562 3 -2.6875 L 3.128906 -2.546875 L 2.652344 -2.074219 L 2.511719 -2.214844 C 2.320312 -2.410156 2.078125 -2.507812 1.78125 -2.507812 C 1.578125 -2.507812 1.398438 -2.460938 1.238281 -2.371094 C 1.078125 -2.28125 0.953125 -2.160156 0.863281 -2.003906 C 0.773438 -1.851562 0.726562 -1.675781 0.726562 -1.480469 C 0.726562 -1.285156 0.773438 -1.109375 0.863281 -0.953125 C 0.953125 -0.800781 1.078125 -0.675781 1.238281 -0.585938 C 1.398438 -0.496094 1.578125 -0.453125 1.78125 -0.453125 C 2.078125 -0.453125 2.324219 -0.550781 2.511719 -0.746094 L 2.652344 -0.890625 L 3.128906 -0.414062 L 3 -0.277344 C 2.847656 -0.113281 2.667969 0.0117188 2.449219 0.0976562 C 2.238281 0.179688 2.011719 0.222656 1.765625 0.222656 Z M 1.765625 -0.171875 C 1.960938 -0.171875 2.140625 -0.207031 2.304688 -0.269531 C 2.464844 -0.335938 2.597656 -0.425781 2.707031 -0.542969 L 2.851562 -0.410156 L 2.714844 -0.269531 L 2.515625 -0.46875 L 2.65625 -0.609375 L 2.796875 -0.472656 C 2.53125 -0.195312 2.191406 -0.0546875 1.78125 -0.0546875 C 1.511719 -0.0546875 1.265625 -0.117188 1.042969 -0.242188 C 0.820312 -0.367188 0.648438 -0.535156 0.519531 -0.753906 C 0.394531 -0.972656 0.332031 -1.210938 0.332031 -1.480469 C 0.332031 -1.746094 0.394531 -1.988281 0.519531 -2.203125 C 0.648438 -2.421875 0.820312 -2.59375 1.042969 -2.71875 C 1.265625 -2.839844 1.511719 -2.902344 1.78125 -2.902344 C 2.1875 -2.902344 2.527344 -2.765625 2.796875 -2.492188 L 2.65625 -2.355469 L 2.515625 -2.496094 L 2.714844 -2.691406 L 2.851562 -2.554688 L 2.707031 -2.417969 C 2.597656 -2.539062 2.464844 -2.628906 2.308594 -2.691406 C 2.144531 -2.753906 1.964844 -2.785156 1.769531 -2.785156 C 1.511719 -2.785156 1.277344 -2.730469 1.070312 -2.617188 C 0.867188 -2.503906 0.707031 -2.347656 0.59375 -2.152344 C 0.476562 -1.953125 0.417969 -1.726562 0.417969 -1.480469 C 0.417969 -1.230469 0.476562 -1.007812 0.59375 -0.808594 C 0.707031 -0.609375 0.867188 -0.453125 1.070312 -0.34375 C 1.277344 -0.230469 1.507812 -0.171875 1.765625 -0.171875 Z M 1.765625 -0.171875 "/></g></g><g style="fill:#ffffff;fill-opacity:1;"><g transform="translate(26.922629, 18.587034)"><path style="stroke:none" d="M 2.335938 -0.59375 L 0.6875 -0.59375 L 0.6875 -0.789062 L 0.871094 -0.710938 L 0.460938 0.199219 L -0.300781 0.199219 L 1.234375 -3.15625 L 1.796875 -3.15625 L 3.332031 0.199219 L 2.5625 0.199219 L 2.15625 -0.710938 L 2.335938 -0.789062 Z M 2.464844 -0.988281 L 2.875 -0.0820312 L 2.691406 0 L 2.691406 -0.199219 L 3.023438 -0.199219 L 3.023438 0 L 2.84375 0.0820312 L 1.488281 -2.875 L 1.667969 -2.957031 L 1.667969 -2.761719 L 1.359375 -2.761719 L 1.359375 -2.957031 L 1.542969 -2.875 L 0.1875 0.0820312 L 0.0078125 0 L 0.0078125 -0.199219 L 0.332031 -0.199219 L 0.332031 0 L 0.152344 -0.0820312 L 0.5625 -0.988281 Z M 2.042969 -0.964844 L 1.332031 -2.550781 L 1.511719 -2.632812 L 1.695312 -2.550781 L 0.984375 -0.964844 L 0.804688 -1.042969 L 0.804688 -1.242188 L 2.222656 -1.242188 L 2.222656 -1.042969 Z M 2.527344 -0.847656 L 0.496094 -0.847656 L 1.511719 -3.121094 L 2.40625 -1.125 Z M 2.527344 -0.847656 "/></g></g><g style="fill:#ffffff;fill-opacity:1;"><g transform="translate(29.95127, 18.587034)"><path style="stroke:none" d=""/></g></g><g style="fill:#ffffff;fill-opacity:1;"><g transform="translate(31.057968, 18.587034)"><path style="stroke:none" d="M 0.480469 -3.15625 L 1.6875 -3.15625 C 2.03125 -3.15625 2.339844 -3.085938 2.605469 -2.945312 C 2.878906 -2.804688 3.09375 -2.605469 3.242188 -2.347656 C 3.394531 -2.09375 3.46875 -1.804688 3.46875 -1.480469 C 3.46875 -1.15625 3.394531 -0.867188 3.242188 -0.613281 C 3.09375 -0.355469 2.878906 -0.15625 2.605469 -0.0117188 C 2.339844 0.128906 2.03125 0.199219 1.6875 0.199219 L 0.285156 0.199219 L 0.285156 -3.15625 Z M 0.480469 -2.761719 L 0.480469 -2.957031 L 0.679688 -2.957031 L 0.679688 0 L 0.480469 0 L 0.480469 -0.199219 L 1.6875 -0.199219 C 1.964844 -0.199219 2.210938 -0.253906 2.421875 -0.363281 C 2.628906 -0.472656 2.789062 -0.621094 2.902344 -0.8125 C 3.015625 -1.007812 3.074219 -1.226562 3.074219 -1.480469 C 3.074219 -1.730469 3.015625 -1.953125 2.902344 -2.144531 C 2.789062 -2.335938 2.628906 -2.488281 2.421875 -2.59375 C 2.210938 -2.707031 1.964844 -2.761719 1.6875 -2.761719 Z M 1.667969 -0.46875 C 1.894531 -0.46875 2.09375 -0.511719 2.257812 -0.601562 C 2.417969 -0.683594 2.542969 -0.804688 2.632812 -0.953125 C 2.71875 -1.101562 2.765625 -1.277344 2.765625 -1.480469 C 2.765625 -1.679688 2.71875 -1.855469 2.632812 -2.007812 C 2.542969 -2.15625 2.417969 -2.273438 2.257812 -2.359375 C 2.09375 -2.445312 1.894531 -2.488281 1.667969 -2.488281 L 0.792969 -2.488281 L 0.792969 -2.6875 L 0.992188 -2.6875 L 0.992188 -0.269531 L 0.792969 -0.269531 L 0.792969 -0.46875 Z M 1.667969 -0.0742188 L 0.597656 -0.0742188 L 0.597656 -2.886719 L 1.667969 -2.886719 C 1.960938 -2.886719 2.21875 -2.828125 2.441406 -2.710938 C 2.671875 -2.589844 2.847656 -2.421875 2.972656 -2.207031 C 3.097656 -1.996094 3.160156 -1.753906 3.160156 -1.480469 C 3.160156 -1.207031 3.097656 -0.964844 2.972656 -0.75 C 2.847656 -0.535156 2.671875 -0.371094 2.441406 -0.25 C 2.21875 -0.132812 1.960938 -0.0742188 1.667969 -0.0742188 Z M 1.667969 -0.0742188 "/></g></g><g style="fill:#ffffff;fill-opacity:1;"><g transform="translate(34.547029, 18.587034)"><path style="stroke:none" d="M 2.773438 -0.269531 L 2.773438 0.199219 L 0.285156 0.199219 L 0.285156 -3.15625 L 2.707031 -3.15625 L 2.707031 -2.488281 L 0.792969 -2.488281 L 0.792969 -2.6875 L 0.992188 -2.6875 L 0.992188 -1.636719 L 0.792969 -1.636719 L 0.792969 -1.835938 L 2.523438 -1.835938 L 2.523438 -1.171875 L 0.792969 -1.171875 L 0.792969 -1.371094 L 0.992188 -1.371094 L 0.992188 -0.269531 L 0.792969 -0.269531 L 0.792969 -0.46875 L 2.773438 -0.46875 Z M 2.375 -0.269531 L 2.574219 -0.269531 L 2.574219 -0.0742188 L 0.597656 -0.0742188 L 0.597656 -1.566406 L 2.324219 -1.566406 L 2.324219 -1.371094 L 2.125 -1.371094 L 2.125 -1.636719 L 2.324219 -1.636719 L 2.324219 -1.4375 L 0.597656 -1.4375 L 0.597656 -2.886719 L 2.511719 -2.886719 L 2.511719 -2.6875 L 2.3125 -2.6875 L 2.3125 -2.957031 L 2.511719 -2.957031 L 2.511719 -2.761719 L 0.480469 -2.761719 L 0.480469 -2.957031 L 0.679688 -2.957031 L 0.679688 0 L 0.480469 0 L 0.480469 -0.199219 L 2.574219 -0.199219 L 2.574219 0 L 2.375 0 Z M 2.375 -0.269531 "/></g></g><g style="fill:#ffffff;fill-opacity:1;"><g transform="translate(37.372913, 18.587034)"><path style="stroke:none" d="M 3.152344 -2.957031 L 3.152344 0.199219 L 2.601562 0.199219 L 0.640625 -2.277344 L 0.792969 -2.402344 L 0.992188 -2.402344 L 0.992188 0.199219 L 0.285156 0.199219 L 0.285156 -3.15625 L 0.835938 -3.15625 L 2.800781 -0.679688 L 2.644531 -0.558594 L 2.449219 -0.558594 L 2.449219 -3.15625 L 3.152344 -3.15625 Z M 2.757812 -2.957031 L 2.953125 -2.957031 L 2.953125 -2.761719 L 2.644531 -2.761719 L 2.644531 -2.957031 L 2.84375 -2.957031 L 2.84375 0.0117188 L 0.585938 -2.835938 L 0.738281 -2.957031 L 0.738281 -2.761719 L 0.480469 -2.761719 L 0.480469 -2.957031 L 0.679688 -2.957031 L 0.679688 0 L 0.480469 0 L 0.480469 -0.199219 L 0.792969 -0.199219 L 0.792969 0 L 0.597656 0 L 0.597656 -2.96875 L 2.851562 -0.125 L 2.695312 0 L 2.695312 -0.199219 L 2.953125 -0.199219 L 2.953125 0 L 2.757812 0 Z M 2.757812 -2.957031 "/></g></g><g style="fill:#ffffff;fill-opacity:1;"><g transform="translate(40.80706, 18.587034)"><path style="stroke:none" d="M 1.058594 -2.488281 L -0.179688 -2.488281 L -0.179688 -3.15625 L 2.609375 -3.15625 L 2.609375 -2.488281 L 1.371094 -2.488281 L 1.371094 -2.6875 L 1.566406 -2.6875 L 1.566406 0.199219 L 0.859375 0.199219 L 0.859375 -2.6875 L 1.058594 -2.6875 Z M 1.253906 -2.886719 L 1.253906 0 L 1.058594 0 L 1.058594 -0.199219 L 1.371094 -0.199219 L 1.371094 0 L 1.171875 0 L 1.171875 -2.886719 L 2.410156 -2.886719 L 2.410156 -2.6875 L 2.210938 -2.6875 L 2.210938 -2.957031 L 2.410156 -2.957031 L 2.410156 -2.761719 L 0.015625 -2.761719 L 0.015625 -2.957031 L 0.214844 -2.957031 L 0.214844 -2.6875 L 0.015625 -2.6875 L 0.015625 -2.886719 Z M 1.253906 -2.886719 "/></g></g><g style="fill:#ffffff;fill-opacity:1;"><g transform="translate(43.231661, 18.587034)"><path style="stroke:none" d="M 2.335938 -0.59375 L 0.6875 -0.59375 L 0.6875 -0.789062 L 0.871094 -0.710938 L 0.460938 0.199219 L -0.300781 0.199219 L 1.234375 -3.15625 L 1.796875 -3.15625 L 3.332031 0.199219 L 2.5625 0.199219 L 2.15625 -0.710938 L 2.335938 -0.789062 Z M 2.464844 -0.988281 L 2.875 -0.0820312 L 2.691406 0 L 2.691406 -0.199219 L 3.023438 -0.199219 L 3.023438 0 L 2.84375 0.0820312 L 1.488281 -2.875 L 1.667969 -2.957031 L 1.667969 -2.761719 L 1.359375 -2.761719 L 1.359375 -2.957031 L 1.542969 -2.875 L 0.1875 0.0820312 L 0.0078125 0 L 0.0078125 -0.199219 L 0.332031 -0.199219 L 0.332031 0 L 0.152344 -0.0820312 L 0.5625 -0.988281 Z M 2.042969 -0.964844 L 1.332031 -2.550781 L 1.511719 -2.632812 L 1.695312 -2.550781 L 0.984375 -0.964844 L 0.804688 -1.042969 L 0.804688 -1.242188 L 2.222656 -1.242188 L 2.222656 -1.042969 Z M 2.527344 -0.847656 L 0.496094 -0.847656 L 1.511719 -3.121094 L 2.40625 -1.125 Z M 2.527344 -0.847656 "/></g></g><g style="fill:#ffffff;fill-opacity:1;"><g transform="translate(46.260302, 18.587034)"><path style="stroke:none" d="M 0.480469 -3.15625 L 0.992188 -3.15625 L 0.992188 -0.269531 L 0.792969 -0.269531 L 0.792969 -0.46875 L 2.648438 -0.46875 L 2.648438 0.199219 L 0.285156 0.199219 L 0.285156 -3.15625 Z M 0.480469 -2.761719 L 0.480469 -2.957031 L 0.679688 -2.957031 L 0.679688 0 L 0.480469 0 L 0.480469 -0.199219 L 2.453125 -0.199219 L 2.453125 0 L 2.253906 0 L 2.253906 -0.269531 L 2.453125 -0.269531 L 2.453125 -0.0742188 L 0.597656 -0.0742188 L 0.597656 -2.957031 L 0.792969 -2.957031 L 0.792969 -2.761719 Z M 0.480469 -2.761719 "/></g></g><g style="fill:#607d8b;fill-opacity:1;"><g transform="translate(11.178216, 18.587034)"><path style="stroke:none" d=""/></g></g><g style="fill:#607d8b;fill-opacity:1;"><g transform="translate(12.37502, 18.587034)"><path style="stroke:none" d="M 1.765625 0.03125 C 1.472656 0.03125 1.207031 -0.03125 0.96875 -0.15625 C 0.738281 -0.289062 0.554688 -0.472656 0.421875 -0.703125 C 0.285156 -0.929688 0.21875 -1.191406 0.21875 -1.484375 C 0.21875 -1.765625 0.285156 -2.019531 0.421875 -2.25 C 0.554688 -2.476562 0.738281 -2.65625 0.96875 -2.78125 C 1.207031 -2.914062 1.476562 -2.984375 1.78125 -2.984375 C 2 -2.984375 2.195312 -2.945312 2.375 -2.875 C 2.5625 -2.800781 2.722656 -2.695312 2.859375 -2.5625 L 2.65625 -2.359375 C 2.425781 -2.585938 2.132812 -2.703125 1.78125 -2.703125 C 1.550781 -2.703125 1.335938 -2.648438 1.140625 -2.546875 C 0.953125 -2.441406 0.800781 -2.296875 0.6875 -2.109375 C 0.582031 -1.921875 0.53125 -1.710938 0.53125 -1.484375 C 0.53125 -1.253906 0.582031 -1.046875 0.6875 -0.859375 C 0.800781 -0.671875 0.953125 -0.519531 1.140625 -0.40625 C 1.335938 -0.300781 1.550781 -0.25 1.78125 -0.25 C 2.132812 -0.25 2.425781 -0.367188 2.65625 -0.609375 L 2.859375 -0.40625 C 2.722656 -0.269531 2.5625 -0.160156 2.375 -0.078125 C 2.1875 -0.00390625 1.984375 0.03125 1.765625 0.03125 Z M 1.765625 0.03125 "/></g></g><g style="fill:#607d8b;fill-opacity:1;"><g transform="translate(15.412109, 18.587034)"><path style="stroke:none" d="M 0.484375 -2.96875 L 0.796875 -2.96875 L 0.796875 -0.265625 L 2.453125 -0.265625 L 2.453125 0 L 0.484375 0 Z M 0.484375 -2.96875 "/></g></g><g style="fill:#607d8b;fill-opacity:1;"><g transform="translate(17.900072, 18.587034)"><path style="stroke:none" d="M 0.484375 -2.96875 L 0.796875 -2.96875 L 0.796875 0 L 0.484375 0 Z M 0.9375 -3.734375 L 1.34375 -3.734375 L 0.65625 -3.203125 L 0.359375 -3.203125 Z M 0.9375 -3.734375 "/></g></g><g style="fill:#607d8b;fill-opacity:1;"><g transform="translate(19.175733, 18.587034)"><path style="stroke:none" d="M 2.953125 -2.96875 L 2.953125 0 L 2.703125 0 L 0.796875 -2.40625 L 0.796875 0 L 0.484375 0 L 0.484375 -2.96875 L 0.734375 -2.96875 L 2.65625 -0.5625 L 2.65625 -2.96875 Z M 2.953125 -2.96875 "/></g></g><g style="fill:#607d8b;fill-opacity:1;"><g transform="translate(22.60988, 18.587034)"><path style="stroke:none" d="M 0.484375 -2.96875 L 0.796875 -2.96875 L 0.796875 0 L 0.484375 0 Z M 0.484375 -2.96875 "/></g></g><g style="fill:#607d8b;fill-opacity:1;"><g transform="translate(23.88554, 18.587034)"><path style="stroke:none" d="M 1.765625 0.03125 C 1.472656 0.03125 1.207031 -0.03125 0.96875 -0.15625 C 0.738281 -0.289062 0.554688 -0.472656 0.421875 -0.703125 C 0.285156 -0.929688 0.21875 -1.191406 0.21875 -1.484375 C 0.21875 -1.765625 0.285156 -2.019531 0.421875 -2.25 C 0.554688 -2.476562 0.738281 -2.65625 0.96875 -2.78125 C 1.207031 -2.914062 1.476562 -2.984375 1.78125 -2.984375 C 2 -2.984375 2.195312 -2.945312 2.375 -2.875 C 2.5625 -2.800781 2.722656 -2.695312 2.859375 -2.5625 L 2.65625 -2.359375 C 2.425781 -2.585938 2.132812 -2.703125 1.78125 -2.703125 C 1.550781 -2.703125 1.335938 -2.648438 1.140625 -2.546875 C 0.953125 -2.441406 0.800781 -2.296875 0.6875 -2.109375 C 0.582031 -1.921875 0.53125 -1.710938 0.53125 -1.484375 C 0.53125 -1.253906 0.582031 -1.046875 0.6875 -0.859375 C 0.800781 -0.671875 0.953125 -0.519531 1.140625 -0.40625 C 1.335938 -0.300781 1.550781 -0.25 1.78125 -0.25 C 2.132812 -0.25 2.425781 -0.367188 2.65625 -0.609375 L 2.859375 -0.40625 C 2.722656 -0.269531 2.5625 -0.160156 2.375 -0.078125 C 2.1875 -0.00390625 1.984375 0.03125 1.765625 0.03125 Z M 1.765625 0.03125 "/></g></g><g style="fill:#607d8b;fill-opacity:1;"><g transform="translate(26.922629, 18.587034)"><path style="stroke:none" d="M 2.34375 -0.796875 L 0.6875 -0.796875 L 0.328125 0 L 0.015625 0 L 1.359375 -2.96875 L 1.671875 -2.96875 L 3.03125 0 L 2.703125 0 Z M 2.234375 -1.046875 L 1.515625 -2.640625 L 0.796875 -1.046875 Z M 2.234375 -1.046875 "/></g></g><g style="fill:#607d8b;fill-opacity:1;"><g transform="translate(29.95127, 18.587034)"><path style="stroke:none" d=""/></g></g><g style="fill:#607d8b;fill-opacity:1;"><g transform="translate(31.057968, 18.587034)"><path style="stroke:none" d="M 0.484375 -2.96875 L 1.6875 -2.96875 C 2 -2.96875 2.273438 -2.90625 2.515625 -2.78125 C 2.753906 -2.65625 2.941406 -2.476562 3.078125 -2.25 C 3.210938 -2.019531 3.28125 -1.765625 3.28125 -1.484375 C 3.28125 -1.191406 3.210938 -0.929688 3.078125 -0.703125 C 2.941406 -0.484375 2.753906 -0.3125 2.515625 -0.1875 C 2.273438 -0.0625 2 0 1.6875 0 L 0.484375 0 Z M 1.671875 -0.265625 C 1.929688 -0.265625 2.15625 -0.316406 2.34375 -0.421875 C 2.539062 -0.523438 2.691406 -0.664062 2.796875 -0.84375 C 2.910156 -1.03125 2.96875 -1.242188 2.96875 -1.484375 C 2.96875 -1.722656 2.910156 -1.929688 2.796875 -2.109375 C 2.691406 -2.296875 2.539062 -2.4375 2.34375 -2.53125 C 2.15625 -2.632812 1.929688 -2.6875 1.671875 -2.6875 L 0.796875 -2.6875 L 0.796875 -0.265625 Z M 1.671875 -0.265625 "/></g></g><g style="fill:#607d8b;fill-opacity:1;"><g transform="translate(34.547029, 18.587034)"><path style="stroke:none" d="M 2.578125 -0.265625 L 2.578125 0 L 0.484375 0 L 0.484375 -2.96875 L 2.515625 -2.96875 L 2.515625 -2.6875 L 0.796875 -2.6875 L 0.796875 -1.640625 L 2.328125 -1.640625 L 2.328125 -1.375 L 0.796875 -1.375 L 0.796875 -0.265625 Z M 2.578125 -0.265625 "/></g></g><g style="fill:#607d8b;fill-opacity:1;"><g transform="translate(37.372913, 18.587034)"><path style="stroke:none" d="M 2.953125 -2.96875 L 2.953125 0 L 2.703125 0 L 0.796875 -2.40625 L 0.796875 0 L 0.484375 0 L 0.484375 -2.96875 L 0.734375 -2.96875 L 2.65625 -0.5625 L 2.65625 -2.96875 Z M 2.953125 -2.96875 "/></g></g><g style="fill:#607d8b;fill-opacity:1;"><g transform="translate(40.80706, 18.587034)"><path style="stroke:none" d="M 1.0625 -2.6875 L 0.015625 -2.6875 L 0.015625 -2.96875 L 2.40625 -2.96875 L 2.40625 -2.6875 L 1.375 -2.6875 L 1.375 0 L 1.0625 0 Z M 1.0625 -2.6875 "/></g></g><g style="fill:#607d8b;fill-opacity:1;"><g transform="translate(43.231661, 18.587034)"><path style="stroke:none" d="M 2.34375 -0.796875 L 0.6875 -0.796875 L 0.328125 0 L 0.015625 0 L 1.359375 -2.96875 L 1.671875 -2.96875 L 3.03125 0 L 2.703125 0 Z M 2.234375 -1.046875 L 1.515625 -2.640625 L 0.796875 -1.046875 Z M 2.234375 -1.046875 "/></g></g><g style="fill:#607d8b;fill-opacity:1;"><g transform="translate(46.260302, 18.587034)"><path style="stroke:none" d="M 0.484375 -2.96875 L 0.796875 -2.96875 L 0.796875 -0.265625 L 2.453125 -0.265625 L 2.453125 0 L 0.484375 0 Z M 0.484375 -2.96875 "/></g></g></g></svg>