<svg xmlns="http://www.w3.org/2000/svg" xmlns:xlink="http://www.w3.org/1999/xlink" width="200" zoomAndPan="magnify" viewBox="0 0 150 74.999997" height="100" preserveAspectRatio="xMidYMid meet" version="1.2"><defs><clipPath id="be8a0bfdf0"><path d="M 5 1 L 103.171875 1 L 103.171875 74.835938 L 5 74.835938 Z M 5 1 "/></clipPath></defs><g id="9002f7f457"><path style=" stroke:none;fill-rule:evenodd;fill:#607d8b;fill-opacity:1;" d="M 36.492188 2.296875 C 42.082031 3.488281 47.394531 2.417969 52.683594 1.042969 C 54.210938 0.648438 55.734375 0.234375 57.324219 0.152344 C 59.730469 0.0273438 61.335938 1.007812 62.324219 3.21875 C 63.167969 5.117188 63.351562 7.140625 63.378906 9.175781 C 63.4375 14.238281 62.554688 19.207031 61.738281 24.179688 C 61.449219 25.953125 61.15625 27.726562 60.707031 29.496094 C 60.820312 27.074219 60.941406 24.652344 61.042969 22.226562 C 61.238281 17.492188 61.542969 12.757812 60.949219 8.027344 C 60.789062 6.753906 60.527344 5.503906 59.984375 4.335938 C 59.179688 2.613281 58.039062 2.035156 56.15625 2.335938 C 53.476562 2.761719 50.902344 3.621094 48.261719 4.195312 C 44.433594 5.03125 40.722656 4.867188 37.203125 2.964844 C 37.007812 2.859375 36.804688 2.765625 36.617188 2.648438 C 36.570312 2.617188 36.566406 2.519531 36.492188 2.296875 Z M 36.492188 2.296875 "/><path style=" stroke:none;fill-rule:evenodd;fill:#2196f3;fill-opacity:1;" d="M 68.089844 14.367188 C 67.953125 15.933594 67.039062 16.601562 65.613281 16.855469 C 67.035156 17.09375 67.917969 17.792969 68.125 19.316406 C 68.359375 17.867188 69.121094 17.070312 70.59375 16.847656 C 69.023438 16.707031 68.414062 15.71875 68.089844 14.367188 Z M 68.089844 14.367188 "/><path style=" stroke:none;fill-rule:evenodd;fill:#2196f3;fill-opacity:1;" d="M 69.964844 3.960938 C 69.722656 6.714844 68.117188 7.890625 65.613281 8.335938 C 68.117188 8.757812 69.664062 9.988281 70.027344 12.664062 C 70.441406 10.117188 71.78125 8.714844 74.367188 8.324219 C 71.609375 8.078125 70.535156 6.335938 69.964844 3.960938 Z M 69.964844 3.960938 "/><path style=" stroke:none;fill-rule:evenodd;fill:#2196f3;fill-opacity:1;" d="M 73.546875 11.589844 C 73.421875 13.039062 72.574219 13.660156 71.253906 13.894531 C 72.574219 14.117188 73.390625 14.765625 73.582031 16.175781 C 73.796875 14.832031 74.503906 14.09375 75.867188 13.886719 C 74.414062 13.757812 73.847656 12.839844 73.546875 11.589844 Z M 73.546875 11.589844 "/><g clip-rule="nonzero" clip-path="url(#be8a0bfdf0)"><path style=" stroke:none;fill-rule:evenodd;fill:#2196f3;fill-opacity:1;" d="M 57.476562 50.351562 C 55.796875 49.9375 52.050781 48.898438 47.328125 50.359375 C 44.199219 51.332031 41.945312 52.347656 40.492188 54.386719 C 38.613281 56.460938 33.289062 70.078125 30.582031 70.457031 C 30.210938 70.507812 29.730469 70.230469 29.078125 69.753906 C 28.355469 69.222656 27.660156 68.542969 26.949219 67.679688 C 25.144531 65.484375 23.441406 62.941406 21.746094 59.902344 C 20.640625 57.921875 19.621094 55.847656 18.636719 53.84375 C 18.285156 53.128906 15.246094 45.878906 14.847656 44.796875 C 13.875 42.132812 12.867188 39.378906 12.15625 36.585938 C 10.960938 31.878906 9.75 26.296875 9.863281 20.570312 C 9.976562 14.539062 12.144531 10.148438 16.492188 7.148438 C 22.636719 3.019531 33.222656 6.765625 33.425781 6.78125 L 33.496094 6.789062 C 36.890625 8.054688 40.730469 9.480469 44.535156 10.652344 C 48.195312 12.023438 51.0625 12.636719 53.828125 12.636719 C 55.058594 12.636719 58.625 12.515625 57.453125 12.25 C 39.339844 8.140625 31.957031 1.082031 23.019531 1.082031 C 22.796875 1.082031 9.554688 3.515625 7.003906 12.699219 C 0 37.863281 19.246094 66.8125 25.273438 71.898438 C 26.742188 73.140625 28 73.992188 29.390625 74.398438 C 29.957031 74.566406 30.503906 74.648438 31.015625 74.648438 C 32.191406 74.648438 33.226562 74.210938 34.097656 73.34375 C 34.847656 72.855469 35.296875 72.167969 35.761719 71.382812 C 37.273438 68.824219 42.441406 58.425781 42.542969 58.234375 C 45.996094 51.742188 58.675781 54.007812 61.519531 54.625 C 86.425781 60.050781 103.171875 56.125 103.171875 56.125 C 103.171875 56.125 73.171875 54.222656 57.476562 50.351562 Z M 57.476562 50.351562 "/></g><g style="fill:#ffffff;fill-opacity:1;"><g transform="translate(26.53113, 37.260998)"><path style="stroke:none" d="M 10.660156 -9.667969 L 10.660156 0.648438 L 7.871094 0.648438 L 2.855469 -5.460938 L 3.355469 -5.871094 L 4.003906 -5.871094 L 4.003906 0.648438 L 0.5 0.648438 L 0.5 -10.316406 L 3.304688 -10.316406 L 8.304688 -4.207031 L 7.804688 -3.796875 L 7.15625 -3.796875 L 7.15625 -10.316406 L 10.660156 -10.316406 Z M 9.367188 -9.667969 L 10.011719 -9.667969 L 10.011719 -9.019531 L 7.804688 -9.019531 L 7.804688 -9.667969 L 8.453125 -9.667969 L 8.453125 -1.984375 L 2.496094 -9.257812 L 2.996094 -9.667969 L 2.996094 -9.019531 L 1.144531 -9.019531 L 1.144531 -9.667969 L 1.792969 -9.667969 L 1.792969 0 L 1.144531 0 L 1.144531 -0.648438 L 3.355469 -0.648438 L 3.355469 0 L 2.707031 0 L 2.707031 -7.679688 L 8.675781 -0.410156 L 8.175781 0 L 8.175781 -0.648438 L 10.011719 -0.648438 L 10.011719 0 L 9.367188 0 Z M 9.367188 -9.667969 "/></g></g><g style="fill:#ffffff;fill-opacity:1;"><g transform="translate(37.685354, 37.260998)"><path style="stroke:none" d="M 7.515625 -1.425781 L 3.023438 -1.425781 L 3.023438 -2.070312 L 3.625 -1.824219 L 2.601562 0.648438 L -1.121094 0.648438 L 3.765625 -10.316406 L 6.816406 -10.316406 L 11.71875 0.648438 L 7.9375 0.648438 L 6.914062 -1.824219 L 7.515625 -2.070312 Z M 7.945312 -2.71875 L 8.96875 -0.246094 L 8.371094 0 L 8.371094 -0.648438 L 10.71875 -0.648438 L 10.71875 0 L 10.125 0.265625 L 5.804688 -9.402344 L 6.394531 -9.667969 L 6.394531 -9.019531 L 4.183594 -9.019531 L 4.183594 -9.667969 L 4.777344 -9.40625 L 0.46875 0.265625 L -0.125 0 L -0.125 -0.648438 L 2.167969 -0.648438 L 2.167969 0 L 1.570312 -0.246094 L 2.589844 -2.71875 Z M 6.210938 -3.523438 L 4.679688 -7.222656 L 5.277344 -7.472656 L 5.875 -7.222656 L 4.339844 -3.523438 L 3.742188 -3.769531 L 3.742188 -4.417969 L 6.808594 -4.417969 L 6.808594 -3.769531 Z M 7.777344 -3.121094 L 2.773438 -3.121094 L 5.277344 -9.164062 L 7.40625 -4.019531 Z M 7.777344 -3.121094 "/></g></g><g style="fill:#ffffff;fill-opacity:1;"><g transform="translate(48.259777, 37.260998)"><path style="stroke:none" d="M 3.148438 -7.199219 L -0.59375 -7.199219 L -0.59375 -10.316406 L 9.128906 -10.316406 L 9.128906 -7.199219 L 5.386719 -7.199219 L 5.386719 -7.84375 L 6.035156 -7.84375 L 6.035156 0.648438 L 2.5 0.648438 L 2.5 -7.84375 L 3.148438 -7.84375 Z M 3.796875 -8.492188 L 3.796875 0 L 3.148438 0 L 3.148438 -0.648438 L 5.386719 -0.648438 L 5.386719 0 L 4.738281 0 L 4.738281 -8.492188 L 8.480469 -8.492188 L 8.480469 -7.84375 L 7.832031 -7.84375 L 7.832031 -9.667969 L 8.480469 -9.667969 L 8.480469 -9.019531 L 0.0546875 -9.019531 L 0.0546875 -9.667969 L 0.703125 -9.667969 L 0.703125 -7.84375 L 0.0546875 -7.84375 L 0.0546875 -8.492188 Z M 3.796875 -8.492188 "/></g></g><g style="fill:#ffffff;fill-opacity:1;"><g transform="translate(56.791099, 37.260998)"><path style="stroke:none" d="M 5.441406 0.8125 C 3.882812 0.8125 2.65625 0.367188 1.761719 -0.519531 C 0.863281 -1.414062 0.414062 -2.65625 0.414062 -4.253906 L 0.414062 -10.316406 L 3.949219 -10.316406 L 3.949219 -4.335938 C 3.949219 -3.628906 4.078125 -3.117188 4.339844 -2.804688 C 4.566406 -2.527344 4.941406 -2.386719 5.457031 -2.386719 C 5.960938 -2.386719 6.332031 -2.523438 6.570312 -2.796875 C 6.832031 -3.09375 6.960938 -3.605469 6.960938 -4.335938 L 6.960938 -10.316406 L 10.46875 -10.316406 L 10.46875 -4.253906 C 10.46875 -2.65625 10.019531 -1.414062 9.125 -0.519531 C 8.226562 0.367188 7 0.8125 5.441406 0.8125 Z M 5.441406 -0.480469 C 6.644531 -0.480469 7.566406 -0.800781 8.210938 -1.441406 C 8.851562 -2.078125 9.171875 -3.015625 9.171875 -4.253906 L 9.171875 -9.667969 L 9.820312 -9.667969 L 9.820312 -9.019531 L 7.609375 -9.019531 L 7.609375 -9.667969 L 8.257812 -9.667969 L 8.257812 -4.335938 C 8.257812 -3.28125 8.019531 -2.480469 7.542969 -1.941406 C 7.046875 -1.375 6.351562 -1.09375 5.457031 -1.09375 C 4.535156 -1.09375 3.828125 -1.386719 3.339844 -1.976562 C 2.882812 -2.527344 2.652344 -3.316406 2.652344 -4.335938 L 2.652344 -9.667969 L 3.300781 -9.667969 L 3.300781 -9.019531 L 1.0625 -9.019531 L 1.0625 -9.667969 L 1.710938 -9.667969 L 1.710938 -4.253906 C 1.710938 -3.015625 2.03125 -2.078125 2.671875 -1.441406 C 3.316406 -0.800781 4.238281 -0.480469 5.441406 -0.480469 Z M 5.441406 -0.480469 "/></g></g><g style="fill:#ffffff;fill-opacity:1;"><g transform="translate(67.669225, 37.260998)"><path style="stroke:none" d="M 6.773438 0.367188 L 4.910156 -2.324219 L 5.441406 -2.691406 L 5.441406 -2.046875 L 3.382812 -2.046875 L 3.382812 -2.691406 L 4.03125 -2.691406 L 4.03125 0.648438 L 0.5 0.648438 L 0.5 -10.316406 L 5.332031 -10.316406 C 6.28125 -10.316406 7.113281 -10.152344 7.828125 -9.832031 C 8.574219 -9.492188 9.152344 -9.007812 9.5625 -8.378906 C 9.972656 -7.746094 10.179688 -7.007812 10.179688 -6.160156 C 10.179688 -5.3125 9.96875 -4.574219 9.550781 -3.945312 C 9.136719 -3.316406 8.550781 -2.839844 7.800781 -2.515625 L 7.542969 -3.109375 L 8.074219 -3.476562 L 10.953125 0.648438 L 6.96875 0.648438 Z M 7.839844 -0.367188 L 7.304688 0 L 7.304688 -0.648438 L 9.710938 -0.648438 L 9.710938 0 L 9.179688 0.371094 L 6.558594 -3.386719 L 7.28125 -3.703125 C 7.800781 -3.925781 8.199219 -4.246094 8.472656 -4.660156 C 8.746094 -5.074219 8.882812 -5.570312 8.882812 -6.160156 C 8.882812 -6.75 8.746094 -7.253906 8.476562 -7.671875 C 8.203125 -8.089844 7.808594 -8.417969 7.296875 -8.648438 C 6.75 -8.898438 6.09375 -9.019531 5.332031 -9.019531 L 1.144531 -9.019531 L 1.144531 -9.667969 L 1.792969 -9.667969 L 1.792969 0 L 1.144531 0 L 1.144531 -0.648438 L 3.382812 -0.648438 L 3.382812 0 L 2.734375 0 L 2.734375 -3.339844 L 5.78125 -3.339844 Z M 6.617188 -6.160156 C 6.617188 -6.5 6.519531 -6.75 6.328125 -6.910156 C 6.097656 -7.101562 5.722656 -7.199219 5.207031 -7.199219 L 3.382812 -7.199219 L 3.382812 -7.84375 L 4.03125 -7.84375 L 4.03125 -4.476562 L 3.382812 -4.476562 L 3.382812 -5.121094 L 5.207031 -5.121094 C 5.722656 -5.121094 6.09375 -5.21875 6.324219 -5.414062 C 6.519531 -5.578125 6.617188 -5.828125 6.617188 -6.160156 Z M 7.914062 -6.160156 C 7.914062 -5.425781 7.660156 -4.84375 7.15625 -4.421875 C 6.6875 -4.027344 6.035156 -3.828125 5.207031 -3.828125 L 2.734375 -3.828125 L 2.734375 -8.492188 L 5.207031 -8.492188 C 6.035156 -8.492188 6.683594 -8.296875 7.152344 -7.910156 C 7.660156 -7.488281 7.914062 -6.90625 7.914062 -6.160156 Z M 7.914062 -6.160156 "/></g></g><g style="fill:#ffffff;fill-opacity:1;"><g transform="translate(77.815701, 37.260998)"><path style="stroke:none" d="M 7.515625 -1.425781 L 3.023438 -1.425781 L 3.023438 -2.070312 L 3.625 -1.824219 L 2.601562 0.648438 L -1.121094 0.648438 L 3.765625 -10.316406 L 6.816406 -10.316406 L 11.71875 0.648438 L 7.9375 0.648438 L 6.914062 -1.824219 L 7.515625 -2.070312 Z M 7.945312 -2.71875 L 8.96875 -0.246094 L 8.371094 0 L 8.371094 -0.648438 L 10.71875 -0.648438 L 10.71875 0 L 10.125 0.265625 L 5.804688 -9.402344 L 6.394531 -9.667969 L 6.394531 -9.019531 L 4.183594 -9.019531 L 4.183594 -9.667969 L 4.777344 -9.40625 L 0.46875 0.265625 L -0.125 0 L -0.125 -0.648438 L 2.167969 -0.648438 L 2.167969 0 L 1.570312 -0.246094 L 2.589844 -2.71875 Z M 6.210938 -3.523438 L 4.679688 -7.222656 L 5.277344 -7.472656 L 5.875 -7.222656 L 4.339844 -3.523438 L 3.742188 -3.769531 L 3.742188 -4.417969 L 6.808594 -4.417969 L 6.808594 -3.769531 Z M 7.777344 -3.121094 L 2.773438 -3.121094 L 5.277344 -9.164062 L 7.40625 -4.019531 Z M 7.777344 -3.121094 "/></g></g><g style="fill:#ffffff;fill-opacity:1;"><g transform="translate(88.390124, 37.260998)"><path style="stroke:none" d="M 1.144531 -10.316406 L 4.03125 -10.316406 L 4.03125 -1.824219 L 3.382812 -1.824219 L 3.382812 -2.472656 L 8.878906 -2.472656 L 8.878906 0.648438 L 0.5 0.648438 L 0.5 -10.316406 Z M 1.144531 -9.019531 L 1.144531 -9.667969 L 1.792969 -9.667969 L 1.792969 0 L 1.144531 0 L 1.144531 -0.648438 L 8.230469 -0.648438 L 8.230469 0 L 7.585938 0 L 7.585938 -1.824219 L 8.230469 -1.824219 L 8.230469 -1.175781 L 2.734375 -1.175781 L 2.734375 -9.667969 L 3.382812 -9.667969 L 3.382812 -9.019531 Z M 1.144531 -9.019531 "/></g></g><g style="fill:#ffffff;fill-opacity:1;"><g transform="translate(96.728176, 37.260998)"><path style="stroke:none" d=""/></g></g><g style="fill:#ffffff;fill-opacity:1;"><g transform="translate(100.634912, 37.260998)"><path style="stroke:none" d="M 1.144531 -10.316406 L 5.539062 -10.316406 C 6.691406 -10.316406 7.714844 -10.09375 8.609375 -9.648438 C 9.527344 -9.191406 10.242188 -8.546875 10.753906 -7.714844 C 11.261719 -6.882812 11.519531 -5.921875 11.519531 -4.835938 C 11.519531 -3.746094 11.261719 -2.785156 10.753906 -1.953125 C 10.242188 -1.121094 9.527344 -0.476562 8.609375 -0.0195312 C 7.714844 0.425781 6.691406 0.648438 5.539062 0.648438 L 0.5 0.648438 L 0.5 -10.316406 Z M 1.144531 -9.019531 L 1.144531 -9.667969 L 1.792969 -9.667969 L 1.792969 0 L 1.144531 0 L 1.144531 -0.648438 L 5.539062 -0.648438 C 6.488281 -0.648438 7.320312 -0.824219 8.035156 -1.179688 C 8.726562 -1.527344 9.265625 -2.011719 9.648438 -2.632812 C 10.03125 -3.253906 10.222656 -3.988281 10.222656 -4.835938 C 10.222656 -5.679688 10.03125 -6.414062 9.648438 -7.035156 C 9.265625 -7.660156 8.726562 -8.140625 8.035156 -8.488281 C 7.320312 -8.84375 6.488281 -9.019531 5.539062 -9.019531 Z M 5.429688 -2.484375 C 6.222656 -2.484375 6.847656 -2.695312 7.300781 -3.117188 C 7.738281 -3.527344 7.957031 -4.101562 7.957031 -4.835938 C 7.957031 -5.566406 7.738281 -6.140625 7.300781 -6.550781 C 6.847656 -6.972656 6.222656 -7.183594 5.429688 -7.183594 L 3.382812 -7.183594 L 3.382812 -7.832031 L 4.03125 -7.832031 L 4.03125 -1.835938 L 3.382812 -1.835938 L 3.382812 -2.484375 Z M 5.429688 -1.1875 L 2.734375 -1.1875 L 2.734375 -8.480469 L 5.429688 -8.480469 C 6.566406 -8.480469 7.484375 -8.152344 8.183594 -7.496094 C 8.894531 -6.828125 9.253906 -5.941406 9.253906 -4.835938 C 9.253906 -3.726562 8.894531 -2.839844 8.183594 -2.171875 C 7.484375 -1.515625 6.566406 -1.1875 5.429688 -1.1875 Z M 5.429688 -1.1875 "/></g></g><g style="fill:#ffffff;fill-opacity:1;"><g transform="translate(112.037617, 37.260998)"><path style="stroke:none" d="M 9.28125 -1.796875 L 9.28125 0.648438 L 0.5 0.648438 L 0.5 -10.316406 L 9.101562 -10.316406 L 9.101562 -7.226562 L 3.371094 -7.226562 L 3.371094 -7.871094 L 4.019531 -7.871094 L 4.019531 -5.773438 L 3.371094 -5.773438 L 3.371094 -6.421875 L 8.507812 -6.421875 L 8.507812 -3.386719 L 3.371094 -3.386719 L 3.371094 -4.03125 L 4.019531 -4.03125 L 4.019531 -1.796875 L 3.371094 -1.796875 L 3.371094 -2.441406 L 9.28125 -2.441406 Z M 7.984375 -1.796875 L 8.632812 -1.796875 L 8.632812 -1.148438 L 2.722656 -1.148438 L 2.722656 -4.679688 L 7.859375 -4.679688 L 7.859375 -4.03125 L 7.210938 -4.03125 L 7.210938 -5.773438 L 7.859375 -5.773438 L 7.859375 -5.125 L 2.722656 -5.125 L 2.722656 -8.519531 L 8.453125 -8.519531 L 8.453125 -7.871094 L 7.804688 -7.871094 L 7.804688 -9.667969 L 8.453125 -9.667969 L 8.453125 -9.019531 L 1.144531 -9.019531 L 1.144531 -9.667969 L 1.792969 -9.667969 L 1.792969 0 L 1.144531 0 L 1.144531 -0.648438 L 8.632812 -0.648438 L 8.632812 0 L 7.984375 0 Z M 7.984375 -1.796875 "/></g></g><g style="fill:#ffffff;fill-opacity:1;"><g transform="translate(121.30059, 37.260998)"><path style="stroke:none" d="M 10.660156 -9.667969 L 10.660156 0.648438 L 7.871094 0.648438 L 2.855469 -5.460938 L 3.355469 -5.871094 L 4.003906 -5.871094 L 4.003906 0.648438 L 0.5 0.648438 L 0.5 -10.316406 L 3.304688 -10.316406 L 8.304688 -4.207031 L 7.804688 -3.796875 L 7.15625 -3.796875 L 7.15625 -10.316406 L 10.660156 -10.316406 Z M 9.367188 -9.667969 L 10.011719 -9.667969 L 10.011719 -9.019531 L 7.804688 -9.019531 L 7.804688 -9.667969 L 8.453125 -9.667969 L 8.453125 -1.984375 L 2.496094 -9.257812 L 2.996094 -9.667969 L 2.996094 -9.019531 L 1.144531 -9.019531 L 1.144531 -9.667969 L 1.792969 -9.667969 L 1.792969 0 L 1.144531 0 L 1.144531 -0.648438 L 3.355469 -0.648438 L 3.355469 0 L 2.707031 0 L 2.707031 -7.679688 L 8.675781 -0.410156 L 8.175781 0 L 8.175781 -0.648438 L 10.011719 -0.648438 L 10.011719 0 L 9.367188 0 Z M 9.367188 -9.667969 "/></g></g><g style="fill:#ffffff;fill-opacity:1;"><g transform="translate(132.454813, 37.260998)"><path style="stroke:none" d="M 3.148438 -7.199219 L -0.59375 -7.199219 L -0.59375 -10.316406 L 9.128906 -10.316406 L 9.128906 -7.199219 L 5.386719 -7.199219 L 5.386719 -7.84375 L 6.035156 -7.84375 L 6.035156 0.648438 L 2.5 0.648438 L 2.5 -7.84375 L 3.148438 -7.84375 Z M 3.796875 -8.492188 L 3.796875 0 L 3.148438 0 L 3.148438 -0.648438 L 5.386719 -0.648438 L 5.386719 0 L 4.738281 0 L 4.738281 -8.492188 L 8.480469 -8.492188 L 8.480469 -7.84375 L 7.832031 -7.84375 L 7.832031 -9.667969 L 8.480469 -9.667969 L 8.480469 -9.019531 L 0.0546875 -9.019531 L 0.0546875 -9.667969 L 0.703125 -9.667969 L 0.703125 -7.84375 L 0.0546875 -7.84375 L 0.0546875 -8.492188 Z M 3.796875 -8.492188 "/></g></g><g style="fill:#ffffff;fill-opacity:1;"><g transform="translate(140.987421, 37.260998)"><path style="stroke:none" d=""/></g></g><g style="fill:#2196f3;fill-opacity:1;"><g transform="translate(26.53113, 37.260998)"><path style="stroke:none" d="M 10.015625 -9.671875 L 10.015625 0 L 8.171875 0 L 3.359375 -5.875 L 3.359375 0 L 1.140625 0 L 1.140625 -9.671875 L 3 -9.671875 L 7.796875 -3.796875 L 7.796875 -9.671875 Z M 10.015625 -9.671875 "/></g></g><g style="fill:#2196f3;fill-opacity:1;"><g transform="translate(37.685354, 37.260998)"><path style="stroke:none" d="M 7.515625 -2.078125 L 3.03125 -2.078125 L 2.171875 0 L -0.125 0 L 4.1875 -9.671875 L 6.390625 -9.671875 L 10.71875 0 L 8.375 0 Z M 6.8125 -3.765625 L 5.28125 -7.46875 L 3.75 -3.765625 Z M 6.8125 -3.765625 "/></g></g><g style="fill:#2196f3;fill-opacity:1;"><g transform="translate(48.259777, 37.260998)"><path style="stroke:none" d="M 3.15625 -7.84375 L 0.0625 -7.84375 L 0.0625 -9.671875 L 8.484375 -9.671875 L 8.484375 -7.84375 L 5.390625 -7.84375 L 5.390625 0 L 3.15625 0 Z M 3.15625 -7.84375 "/></g></g><g style="fill:#2196f3;fill-opacity:1;"><g transform="translate(56.791099, 37.260998)"><path style="stroke:none" d="M 5.4375 0.171875 C 4.0625 0.171875 2.988281 -0.207031 2.21875 -0.96875 C 1.445312 -1.738281 1.0625 -2.832031 1.0625 -4.25 L 1.0625 -9.671875 L 3.296875 -9.671875 L 3.296875 -4.34375 C 3.296875 -2.601562 4.015625 -1.734375 5.453125 -1.734375 C 6.148438 -1.734375 6.679688 -1.941406 7.046875 -2.359375 C 7.421875 -2.785156 7.609375 -3.445312 7.609375 -4.34375 L 7.609375 -9.671875 L 9.828125 -9.671875 L 9.828125 -4.25 C 9.828125 -2.832031 9.441406 -1.738281 8.671875 -0.96875 C 7.898438 -0.207031 6.820312 0.171875 5.4375 0.171875 Z M 5.4375 0.171875 "/></g></g><g style="fill:#2196f3;fill-opacity:1;"><g transform="translate(67.669225, 37.260998)"><path style="stroke:none" d="M 7.3125 0 L 5.4375 -2.6875 L 3.390625 -2.6875 L 3.390625 0 L 1.140625 0 L 1.140625 -9.671875 L 5.328125 -9.671875 C 6.179688 -9.671875 6.925781 -9.523438 7.5625 -9.234375 C 8.195312 -8.953125 8.679688 -8.546875 9.015625 -8.015625 C 9.359375 -7.492188 9.53125 -6.875 9.53125 -6.15625 C 9.53125 -5.4375 9.359375 -4.816406 9.015625 -4.296875 C 8.671875 -3.773438 8.179688 -3.378906 7.546875 -3.109375 L 9.703125 0 Z M 7.265625 -6.15625 C 7.265625 -6.695312 7.085938 -7.113281 6.734375 -7.40625 C 6.390625 -7.695312 5.878906 -7.84375 5.203125 -7.84375 L 3.390625 -7.84375 L 3.390625 -4.46875 L 5.203125 -4.46875 C 5.878906 -4.46875 6.390625 -4.613281 6.734375 -4.90625 C 7.085938 -5.207031 7.265625 -5.625 7.265625 -6.15625 Z M 7.265625 -6.15625 "/></g></g><g style="fill:#2196f3;fill-opacity:1;"><g transform="translate(77.815701, 37.260998)"><path style="stroke:none" d="M 7.515625 -2.078125 L 3.03125 -2.078125 L 2.171875 0 L -0.125 0 L 4.1875 -9.671875 L 6.390625 -9.671875 L 10.71875 0 L 8.375 0 Z M 6.8125 -3.765625 L 5.28125 -7.46875 L 3.75 -3.765625 Z M 6.8125 -3.765625 "/></g></g><g style="fill:#2196f3;fill-opacity:1;"><g transform="translate(88.390124, 37.260998)"><path style="stroke:none" d="M 1.140625 -9.671875 L 3.390625 -9.671875 L 3.390625 -1.828125 L 8.234375 -1.828125 L 8.234375 0 L 1.140625 0 Z M 1.140625 -9.671875 "/></g></g><g style="fill:#2196f3;fill-opacity:1;"><g transform="translate(96.728176, 37.260998)"><path style="stroke:none" d=""/></g></g><g style="fill:#2196f3;fill-opacity:1;"><g transform="translate(100.634912, 37.260998)"><path style="stroke:none" d="M 1.140625 -9.671875 L 5.53125 -9.671875 C 6.582031 -9.671875 7.507812 -9.46875 8.3125 -9.0625 C 9.125 -8.664062 9.753906 -8.101562 10.203125 -7.375 C 10.648438 -6.644531 10.875 -5.796875 10.875 -4.828125 C 10.875 -3.867188 10.648438 -3.023438 10.203125 -2.296875 C 9.753906 -1.566406 9.125 -1 8.3125 -0.59375 C 7.507812 -0.195312 6.582031 0 5.53125 0 L 1.140625 0 Z M 5.421875 -1.84375 C 6.390625 -1.84375 7.160156 -2.109375 7.734375 -2.640625 C 8.316406 -3.179688 8.609375 -3.910156 8.609375 -4.828125 C 8.609375 -5.753906 8.316406 -6.484375 7.734375 -7.015625 C 7.160156 -7.554688 6.390625 -7.828125 5.421875 -7.828125 L 3.390625 -7.828125 L 3.390625 -1.84375 Z M 5.421875 -1.84375 "/></g></g><g style="fill:#2196f3;fill-opacity:1;"><g transform="translate(112.037617, 37.260998)"><path style="stroke:none" d="M 8.640625 -1.796875 L 8.640625 0 L 1.140625 0 L 1.140625 -9.671875 L 8.453125 -9.671875 L 8.453125 -7.875 L 3.375 -7.875 L 3.375 -5.78125 L 7.859375 -5.78125 L 7.859375 -4.03125 L 3.375 -4.03125 L 3.375 -1.796875 Z M 8.640625 -1.796875 "/></g></g><g style="fill:#2196f3;fill-opacity:1;"><g transform="translate(121.30059, 37.260998)"><path style="stroke:none" d="M 10.015625 -9.671875 L 10.015625 0 L 8.171875 0 L 3.359375 -5.875 L 3.359375 0 L 1.140625 0 L 1.140625 -9.671875 L 3 -9.671875 L 7.796875 -3.796875 L 7.796875 -9.671875 Z M 10.015625 -9.671875 "/></g></g><g style="fill:#2196f3;fill-opacity:1;"><g transform="translate(132.454813, 37.260998)"><path style="stroke:none" d="M 3.15625 -7.84375 L 0.0625 -7.84375 L 0.0625 -9.671875 L 8.484375 -9.671875 L 8.484375 -7.84375 L 5.390625 -7.84375 L 5.390625 0 L 3.15625 0 Z M 3.15625 -7.84375 "/></g></g><g style="fill:#2196f3;fill-opacity:1;"><g transform="translate(140.987421, 37.260998)"><path style="stroke:none" d=""/></g></g><g style="fill:#ffffff;fill-opacity:1;"><g transform="translate(26.53113, 47.956654)"><path style="stroke:none" d=""/></g></g><g style="fill:#ffffff;fill-opacity:1;"><g transform="translate(29.61902, 47.956654)"><path style="stroke:none" d="M 4.558594 0.578125 C 3.714844 0.578125 2.949219 0.386719 2.265625 0.0117188 C 1.578125 -0.367188 1.035156 -0.894531 0.644531 -1.570312 C 0.25 -2.242188 0.0546875 -2.992188 0.0546875 -3.816406 C 0.0546875 -4.644531 0.25 -5.394531 0.644531 -6.066406 C 1.035156 -6.738281 1.578125 -7.265625 2.273438 -7.644531 C 2.960938 -8.023438 3.726562 -8.210938 4.570312 -8.210938 C 5.203125 -8.210938 5.789062 -8.105469 6.328125 -7.890625 C 6.878906 -7.675781 7.351562 -7.355469 7.738281 -6.933594 L 8.070312 -6.574219 L 6.847656 -5.347656 L 6.484375 -5.714844 C 5.988281 -6.21875 5.359375 -6.46875 4.589844 -6.46875 C 4.078125 -6.46875 3.609375 -6.351562 3.195312 -6.117188 C 2.78125 -5.886719 2.457031 -5.574219 2.226562 -5.171875 C 1.992188 -4.773438 1.875 -4.320312 1.875 -3.816406 C 1.875 -3.3125 1.992188 -2.859375 2.226562 -2.460938 C 2.457031 -2.0625 2.78125 -1.746094 3.195312 -1.515625 C 3.609375 -1.28125 4.078125 -1.164062 4.589844 -1.164062 C 5.363281 -1.164062 5.992188 -1.417969 6.480469 -1.925781 L 6.84375 -2.300781 L 8.070312 -1.074219 L 7.738281 -0.710938 C 7.351562 -0.289062 6.878906 0.03125 6.324219 0.25 C 5.78125 0.46875 5.191406 0.578125 4.558594 0.578125 Z M 4.558594 -0.445312 C 5.058594 -0.445312 5.523438 -0.53125 5.945312 -0.699219 C 6.355469 -0.863281 6.703125 -1.097656 6.984375 -1.402344 L 7.363281 -1.058594 L 7 -0.695312 L 6.488281 -1.207031 L 6.847656 -1.570312 L 7.21875 -1.214844 C 6.527344 -0.5 5.652344 -0.144531 4.589844 -0.144531 C 3.898438 -0.144531 3.265625 -0.300781 2.695312 -0.621094 C 2.121094 -0.945312 1.667969 -1.386719 1.339844 -1.945312 C 1.015625 -2.503906 0.851562 -3.128906 0.851562 -3.816406 C 0.851562 -4.503906 1.015625 -5.128906 1.339844 -5.6875 C 1.667969 -6.25 2.121094 -6.691406 2.695312 -7.011719 C 3.265625 -7.332031 3.898438 -7.492188 4.589844 -7.492188 C 5.640625 -7.492188 6.515625 -7.140625 7.210938 -6.433594 L 6.847656 -6.074219 L 6.488281 -6.4375 L 7 -6.949219 L 7.363281 -6.585938 L 6.984375 -6.242188 C 6.703125 -6.546875 6.359375 -6.78125 5.953125 -6.941406 C 5.53125 -7.105469 5.070312 -7.1875 4.570312 -7.1875 C 3.902344 -7.1875 3.300781 -7.042969 2.765625 -6.75 C 2.238281 -6.460938 1.824219 -6.058594 1.527344 -5.550781 C 1.226562 -5.035156 1.078125 -4.460938 1.078125 -3.816406 C 1.078125 -3.175781 1.226562 -2.597656 1.527344 -2.085938 C 1.824219 -1.574219 2.234375 -1.171875 2.761719 -0.882812 C 3.289062 -0.59375 3.890625 -0.445312 4.558594 -0.445312 Z M 4.558594 -0.445312 "/></g></g><g style="fill:#ffffff;fill-opacity:1;"><g transform="translate(37.455054, 47.956654)"><path style="stroke:none" d="M 1.242188 -8.144531 L 2.5625 -8.144531 L 2.5625 -0.699219 L 2.050781 -0.699219 L 2.050781 -1.210938 L 6.835938 -1.210938 L 6.835938 0.511719 L 0.730469 0.511719 L 0.730469 -8.144531 Z M 1.242188 -7.121094 L 1.242188 -7.632812 L 1.753906 -7.632812 L 1.753906 0 L 1.242188 0 L 1.242188 -0.511719 L 6.324219 -0.511719 L 6.324219 0 L 5.8125 0 L 5.8125 -0.699219 L 6.324219 -0.699219 L 6.324219 -0.1875 L 1.539062 -0.1875 L 1.539062 -7.632812 L 2.050781 -7.632812 L 2.050781 -7.121094 Z M 1.242188 -7.121094 "/></g></g><g style="fill:#ffffff;fill-opacity:1;"><g transform="translate(43.874283, 47.956654)"><path style="stroke:none" d="M 1.242188 -8.144531 L 2.5625 -8.144531 L 2.5625 0.511719 L 0.730469 0.511719 L 0.730469 -8.144531 Z M 1.242188 -7.121094 L 1.242188 -7.632812 L 1.753906 -7.632812 L 1.753906 0 L 1.242188 0 L 1.242188 -0.511719 L 2.050781 -0.511719 L 2.050781 0 L 1.539062 0 L 1.539062 -7.632812 L 2.050781 -7.632812 L 2.050781 -7.121094 Z M 2.433594 -10.121094 L 4.976562 -10.121094 L 1.875 -7.742188 L -0.390625 -7.742188 L 2.234375 -10.121094 Z M 2.433594 -9.097656 L 2.433594 -9.609375 L 2.773438 -9.230469 L 1.28125 -7.875 L 0.9375 -8.253906 L 0.9375 -8.765625 L 1.703125 -8.765625 L 1.703125 -8.253906 L 1.390625 -8.660156 L 3.15625 -10.015625 L 3.46875 -9.609375 L 3.46875 -9.097656 Z M 2.433594 -9.097656 "/></g></g><g style="fill:#ffffff;fill-opacity:1;"><g transform="translate(47.165632, 47.956654)"><path style="stroke:none" d="M 8.132812 -7.632812 L 8.132812 0.511719 L 6.710938 0.511719 L 1.648438 -5.875 L 2.050781 -6.195312 L 2.5625 -6.195312 L 2.5625 0.511719 L 0.730469 0.511719 L 0.730469 -8.144531 L 2.15625 -8.144531 L 7.226562 -1.757812 L 6.828125 -1.441406 L 6.316406 -1.441406 L 6.316406 -8.144531 L 8.132812 -8.144531 Z M 7.113281 -7.632812 L 7.625 -7.632812 L 7.625 -7.121094 L 6.828125 -7.121094 L 6.828125 -7.632812 L 7.339844 -7.632812 L 7.339844 0.0273438 L 1.507812 -7.316406 L 1.910156 -7.632812 L 1.910156 -7.121094 L 1.242188 -7.121094 L 1.242188 -7.632812 L 1.753906 -7.632812 L 1.753906 0 L 1.242188 0 L 1.242188 -0.511719 L 2.050781 -0.511719 L 2.050781 0 L 1.539062 0 L 1.539062 -7.664062 L 7.359375 -0.316406 L 6.957031 0 L 6.957031 -0.511719 L 7.625 -0.511719 L 7.625 0 L 7.113281 0 Z M 7.113281 -7.632812 "/></g></g><g style="fill:#ffffff;fill-opacity:1;"><g transform="translate(56.026122, 47.956654)"><path style="stroke:none" d="M 0.730469 -8.144531 L 2.5625 -8.144531 L 2.5625 0.511719 L 0.730469 0.511719 Z M 0.730469 -8.144531 "/></g></g><g style="fill:#ffffff;fill-opacity:1;"><g transform="translate(59.317471, 47.956654)"><path style="stroke:none" d="M 4.558594 0.578125 C 3.714844 0.578125 2.949219 0.386719 2.265625 0.0117188 C 1.578125 -0.367188 1.035156 -0.894531 0.644531 -1.570312 C 0.25 -2.242188 0.0546875 -2.992188 0.0546875 -3.816406 C 0.0546875 -4.644531 0.25 -5.394531 0.644531 -6.066406 C 1.035156 -6.738281 1.578125 -7.265625 2.273438 -7.644531 C 2.960938 -8.023438 3.726562 -8.210938 4.570312 -8.210938 C 5.203125 -8.210938 5.789062 -8.105469 6.328125 -7.890625 C 6.878906 -7.675781 7.351562 -7.355469 7.738281 -6.933594 L 8.070312 -6.574219 L 6.847656 -5.347656 L 6.484375 -5.714844 C 5.988281 -6.21875 5.359375 -6.46875 4.589844 -6.46875 C 4.078125 -6.46875 3.609375 -6.351562 3.195312 -6.117188 C 2.78125 -5.886719 2.457031 -5.574219 2.226562 -5.171875 C 1.992188 -4.773438 1.875 -4.320312 1.875 -3.816406 C 1.875 -3.3125 1.992188 -2.859375 2.226562 -2.460938 C 2.457031 -2.0625 2.78125 -1.746094 3.195312 -1.515625 C 3.609375 -1.28125 4.078125 -1.164062 4.589844 -1.164062 C 5.363281 -1.164062 5.992188 -1.417969 6.480469 -1.925781 L 6.84375 -2.300781 L 8.070312 -1.074219 L 7.738281 -0.710938 C 7.351562 -0.289062 6.878906 0.03125 6.324219 0.25 C 5.78125 0.46875 5.191406 0.578125 4.558594 0.578125 Z M 4.558594 -0.445312 C 5.058594 -0.445312 5.523438 -0.53125 5.945312 -0.699219 C 6.355469 -0.863281 6.703125 -1.097656 6.984375 -1.402344 L 7.363281 -1.058594 L 7 -0.695312 L 6.488281 -1.207031 L 6.847656 -1.570312 L 7.21875 -1.214844 C 6.527344 -0.5 5.652344 -0.144531 4.589844 -0.144531 C 3.898438 -0.144531 3.265625 -0.300781 2.695312 -0.621094 C 2.121094 -0.945312 1.667969 -1.386719 1.339844 -1.945312 C 1.015625 -2.503906 0.851562 -3.128906 0.851562 -3.816406 C 0.851562 -4.503906 1.015625 -5.128906 1.339844 -5.6875 C 1.667969 -6.25 2.121094 -6.691406 2.695312 -7.011719 C 3.265625 -7.332031 3.898438 -7.492188 4.589844 -7.492188 C 5.640625 -7.492188 6.515625 -7.140625 7.210938 -6.433594 L 6.847656 -6.074219 L 6.488281 -6.4375 L 7 -6.949219 L 7.363281 -6.585938 L 6.984375 -6.242188 C 6.703125 -6.546875 6.359375 -6.78125 5.953125 -6.941406 C 5.53125 -7.105469 5.070312 -7.1875 4.570312 -7.1875 C 3.902344 -7.1875 3.300781 -7.042969 2.765625 -6.75 C 2.238281 -6.460938 1.824219 -6.058594 1.527344 -5.550781 C 1.226562 -5.035156 1.078125 -4.460938 1.078125 -3.816406 C 1.078125 -3.175781 1.226562 -2.597656 1.527344 -2.085938 C 1.824219 -1.574219 2.234375 -1.171875 2.761719 -0.882812 C 3.289062 -0.59375 3.890625 -0.445312 4.558594 -0.445312 Z M 4.558594 -0.445312 "/></g></g><g style="fill:#ffffff;fill-opacity:1;"><g transform="translate(67.153505, 47.956654)"><path style="stroke:none" d="M 6.03125 -1.527344 L 1.777344 -1.527344 L 1.777344 -2.039062 L 2.246094 -1.828125 L 1.191406 0.511719 L -0.773438 0.511719 L 3.183594 -8.144531 L 4.636719 -8.144531 L 8.59375 0.511719 L 6.617188 0.511719 L 5.5625 -1.828125 L 6.03125 -2.039062 Z M 6.363281 -2.550781 L 7.414062 -0.210938 L 6.945312 0 L 6.945312 -0.511719 L 7.796875 -0.511719 L 7.796875 0 L 7.332031 0.210938 L 3.84375 -7.421875 L 4.308594 -7.632812 L 4.308594 -7.121094 L 3.511719 -7.121094 L 3.511719 -7.632812 L 3.976562 -7.421875 L 0.488281 0.210938 L 0.0234375 0 L 0.0234375 -0.511719 L 0.863281 -0.511719 L 0.863281 0 L 0.394531 -0.210938 L 1.445312 -2.550781 Z M 5.269531 -2.484375 L 3.4375 -6.585938 L 3.902344 -6.792969 L 4.371094 -6.585938 L 2.539062 -2.484375 L 2.070312 -2.695312 L 2.070312 -3.207031 L 5.738281 -3.207031 L 5.738281 -2.695312 Z M 6.523438 -2.183594 L 1.285156 -2.183594 L 3.902344 -8.046875 L 6.203125 -2.902344 Z M 6.523438 -2.183594 "/></g></g><g style="fill:#ffffff;fill-opacity:1;"><g transform="translate(74.967744, 47.956654)"><path style="stroke:none" d=""/></g></g><g style="fill:#ffffff;fill-opacity:1;"><g transform="translate(77.823151, 47.956654)"><path style="stroke:none" d="M 1.242188 -8.144531 L 4.351562 -8.144531 C 5.242188 -8.144531 6.035156 -7.964844 6.726562 -7.601562 C 7.429688 -7.234375 7.976562 -6.71875 8.367188 -6.058594 C 8.757812 -5.398438 8.953125 -4.652344 8.953125 -3.816406 C 8.953125 -2.980469 8.757812 -2.234375 8.367188 -1.578125 C 7.976562 -0.914062 7.429688 -0.402344 6.726562 -0.03125 C 6.035156 0.332031 5.242188 0.511719 4.351562 0.511719 L 0.730469 0.511719 L 0.730469 -8.144531 Z M 1.242188 -7.121094 L 1.242188 -7.632812 L 1.753906 -7.632812 L 1.753906 0 L 1.242188 0 L 1.242188 -0.511719 L 4.351562 -0.511719 C 5.074219 -0.511719 5.707031 -0.652344 6.25 -0.9375 C 6.785156 -1.21875 7.195312 -1.601562 7.488281 -2.097656 C 7.78125 -2.59375 7.929688 -3.167969 7.929688 -3.816406 C 7.929688 -4.464844 7.78125 -5.039062 7.488281 -5.535156 C 7.195312 -6.03125 6.785156 -6.417969 6.25 -6.695312 C 5.707031 -6.980469 5.074219 -7.121094 4.351562 -7.121094 Z M 4.308594 -1.210938 C 4.890625 -1.210938 5.398438 -1.324219 5.824219 -1.546875 C 6.242188 -1.769531 6.5625 -2.070312 6.789062 -2.457031 C 7.019531 -2.847656 7.132812 -3.300781 7.132812 -3.816406 C 7.132812 -4.335938 7.019531 -4.789062 6.789062 -5.175781 C 6.5625 -5.5625 6.242188 -5.867188 5.824219 -6.085938 C 5.398438 -6.3125 4.890625 -6.425781 4.308594 -6.425781 L 2.050781 -6.425781 L 2.050781 -6.9375 L 2.5625 -6.9375 L 2.5625 -0.699219 L 2.050781 -0.699219 L 2.050781 -1.210938 Z M 4.308594 -0.1875 L 1.539062 -0.1875 L 1.539062 -7.449219 L 4.308594 -7.449219 C 5.0625 -7.449219 5.726562 -7.296875 6.304688 -6.988281 C 6.890625 -6.679688 7.347656 -6.25 7.671875 -5.695312 C 7.996094 -5.148438 8.15625 -4.519531 8.15625 -3.816406 C 8.15625 -3.113281 7.996094 -2.488281 7.671875 -1.9375 C 7.347656 -1.386719 6.890625 -0.953125 6.304688 -0.644531 C 5.726562 -0.339844 5.0625 -0.1875 4.308594 -0.1875 Z M 4.308594 -0.1875 "/></g></g><g style="fill:#ffffff;fill-opacity:1;"><g transform="translate(86.825326, 47.956654)"><path style="stroke:none" d="M 7.152344 -0.699219 L 7.152344 0.511719 L 0.730469 0.511719 L 0.730469 -8.144531 L 6.988281 -8.144531 L 6.988281 -6.425781 L 2.050781 -6.425781 L 2.050781 -6.9375 L 2.5625 -6.9375 L 2.5625 -4.21875 L 2.050781 -4.21875 L 2.050781 -4.730469 L 6.507812 -4.730469 L 6.507812 -3.023438 L 2.050781 -3.023438 L 2.050781 -3.535156 L 2.5625 -3.535156 L 2.5625 -0.699219 L 2.050781 -0.699219 L 2.050781 -1.210938 L 7.152344 -1.210938 Z M 6.128906 -0.699219 L 6.640625 -0.699219 L 6.640625 -0.1875 L 1.539062 -0.1875 L 1.539062 -4.046875 L 6 -4.046875 L 6 -3.535156 L 5.488281 -3.535156 L 5.488281 -4.21875 L 6 -4.21875 L 6 -3.710938 L 1.539062 -3.710938 L 1.539062 -7.449219 L 6.476562 -7.449219 L 6.476562 -6.9375 L 5.964844 -6.9375 L 5.964844 -7.632812 L 6.476562 -7.632812 L 6.476562 -7.121094 L 1.242188 -7.121094 L 1.242188 -7.632812 L 1.753906 -7.632812 L 1.753906 0 L 1.242188 0 L 1.242188 -0.511719 L 6.640625 -0.511719 L 6.640625 0 L 6.128906 0 Z M 6.128906 -0.699219 "/></g></g><g style="fill:#ffffff;fill-opacity:1;"><g transform="translate(94.116427, 47.956654)"><path style="stroke:none" d="M 8.132812 -7.632812 L 8.132812 0.511719 L 6.710938 0.511719 L 1.648438 -5.875 L 2.050781 -6.195312 L 2.5625 -6.195312 L 2.5625 0.511719 L 0.730469 0.511719 L 0.730469 -8.144531 L 2.15625 -8.144531 L 7.226562 -1.757812 L 6.828125 -1.441406 L 6.316406 -1.441406 L 6.316406 -8.144531 L 8.132812 -8.144531 Z M 7.113281 -7.632812 L 7.625 -7.632812 L 7.625 -7.121094 L 6.828125 -7.121094 L 6.828125 -7.632812 L 7.339844 -7.632812 L 7.339844 0.0273438 L 1.507812 -7.316406 L 1.910156 -7.632812 L 1.910156 -7.121094 L 1.242188 -7.121094 L 1.242188 -7.632812 L 1.753906 -7.632812 L 1.753906 0 L 1.242188 0 L 1.242188 -0.511719 L 2.050781 -0.511719 L 2.050781 0 L 1.539062 0 L 1.539062 -7.664062 L 7.359375 -0.316406 L 6.957031 0 L 6.957031 -0.511719 L 7.625 -0.511719 L 7.625 0 L 7.113281 0 Z M 7.113281 -7.632812 "/></g></g><g style="fill:#ffffff;fill-opacity:1;"><g transform="translate(102.976917, 47.956654)"><path style="stroke:none" d="M 2.726562 -6.425781 L -0.46875 -6.425781 L -0.46875 -8.144531 L 6.726562 -8.144531 L 6.726562 -6.425781 L 3.535156 -6.425781 L 3.535156 -6.9375 L 4.046875 -6.9375 L 4.046875 0.511719 L 2.214844 0.511719 L 2.214844 -6.9375 L 2.726562 -6.9375 Z M 3.238281 -7.449219 L 3.238281 0 L 2.726562 0 L 2.726562 -0.511719 L 3.535156 -0.511719 L 3.535156 0 L 3.023438 0 L 3.023438 -7.449219 L 6.214844 -7.449219 L 6.214844 -6.9375 L 5.703125 -6.9375 L 5.703125 -7.632812 L 6.214844 -7.632812 L 6.214844 -7.121094 L 0.0429688 -7.121094 L 0.0429688 -7.632812 L 0.554688 -7.632812 L 0.554688 -6.9375 L 0.0429688 -6.9375 L 0.0429688 -7.449219 Z M 3.238281 -7.449219 "/></g></g><g style="fill:#ffffff;fill-opacity:1;"><g transform="translate(109.232664, 47.956654)"><path style="stroke:none" d="M 6.03125 -1.527344 L 1.777344 -1.527344 L 1.777344 -2.039062 L 2.246094 -1.828125 L 1.191406 0.511719 L -0.773438 0.511719 L 3.183594 -8.144531 L 4.636719 -8.144531 L 8.59375 0.511719 L 6.617188 0.511719 L 5.5625 -1.828125 L 6.03125 -2.039062 Z M 6.363281 -2.550781 L 7.414062 -0.210938 L 6.945312 0 L 6.945312 -0.511719 L 7.796875 -0.511719 L 7.796875 0 L 7.332031 0.210938 L 3.84375 -7.421875 L 4.308594 -7.632812 L 4.308594 -7.121094 L 3.511719 -7.121094 L 3.511719 -7.632812 L 3.976562 -7.421875 L 0.488281 0.210938 L 0.0234375 0 L 0.0234375 -0.511719 L 0.863281 -0.511719 L 0.863281 0 L 0.394531 -0.210938 L 1.445312 -2.550781 Z M 5.269531 -2.484375 L 3.4375 -6.585938 L 3.902344 -6.792969 L 4.371094 -6.585938 L 2.539062 -2.484375 L 2.070312 -2.695312 L 2.070312 -3.207031 L 5.738281 -3.207031 L 5.738281 -2.695312 Z M 6.523438 -2.183594 L 1.285156 -2.183594 L 3.902344 -8.046875 L 6.203125 -2.902344 Z M 6.523438 -2.183594 "/></g></g><g style="fill:#ffffff;fill-opacity:1;"><g transform="translate(117.046902, 47.956654)"><path style="stroke:none" d="M 1.242188 -8.144531 L 2.5625 -8.144531 L 2.5625 -0.699219 L 2.050781 -0.699219 L 2.050781 -1.210938 L 6.835938 -1.210938 L 6.835938 0.511719 L 0.730469 0.511719 L 0.730469 -8.144531 Z M 1.242188 -7.121094 L 1.242188 -7.632812 L 1.753906 -7.632812 L 1.753906 0 L 1.242188 0 L 1.242188 -0.511719 L 6.324219 -0.511719 L 6.324219 0 L 5.8125 0 L 5.8125 -0.699219 L 6.324219 -0.699219 L 6.324219 -0.1875 L 1.539062 -0.1875 L 1.539062 -7.632812 L 2.050781 -7.632812 L 2.050781 -7.121094 Z M 1.242188 -7.121094 "/></g></g><g style="fill:#607d8b;fill-opacity:1;"><g transform="translate(26.53113, 47.956654)"><path style="stroke:none" d=""/></g></g><g style="fill:#607d8b;fill-opacity:1;"><g transform="translate(29.61902, 47.956654)"><path style="stroke:none" d="M 4.5625 0.0625 C 3.800781 0.0625 3.117188 -0.101562 2.515625 -0.4375 C 1.910156 -0.769531 1.429688 -1.234375 1.078125 -1.828125 C 0.734375 -2.421875 0.5625 -3.082031 0.5625 -3.8125 C 0.5625 -4.550781 0.734375 -5.21875 1.078125 -5.8125 C 1.429688 -6.40625 1.910156 -6.867188 2.515625 -7.203125 C 3.128906 -7.535156 3.8125 -7.703125 4.5625 -7.703125 C 5.132812 -7.703125 5.660156 -7.601562 6.140625 -7.40625 C 6.617188 -7.21875 7.023438 -6.945312 7.359375 -6.59375 L 6.84375 -6.078125 C 6.25 -6.679688 5.5 -6.984375 4.59375 -6.984375 C 3.988281 -6.984375 3.4375 -6.84375 2.9375 -6.5625 C 2.445312 -6.289062 2.0625 -5.914062 1.78125 -5.4375 C 1.5 -4.957031 1.359375 -4.414062 1.359375 -3.8125 C 1.359375 -3.21875 1.5 -2.679688 1.78125 -2.203125 C 2.0625 -1.722656 2.445312 -1.34375 2.9375 -1.0625 C 3.4375 -0.789062 3.988281 -0.65625 4.59375 -0.65625 C 5.507812 -0.65625 6.257812 -0.960938 6.84375 -1.578125 L 7.359375 -1.0625 C 7.023438 -0.695312 6.613281 -0.414062 6.125 -0.21875 C 5.644531 -0.03125 5.125 0.0625 4.5625 0.0625 Z M 4.5625 0.0625 "/></g></g><g style="fill:#607d8b;fill-opacity:1;"><g transform="translate(37.455054, 47.956654)"><path style="stroke:none" d="M 1.25 -7.640625 L 2.046875 -7.640625 L 2.046875 -0.703125 L 6.328125 -0.703125 L 6.328125 0 L 1.25 0 Z M 1.25 -7.640625 "/></g></g><g style="fill:#607d8b;fill-opacity:1;"><g transform="translate(43.874283, 47.956654)"><path style="stroke:none" d="M 1.25 -7.640625 L 2.046875 -7.640625 L 2.046875 0 L 1.25 0 Z M 2.4375 -9.609375 L 3.46875 -9.609375 L 1.703125 -8.25 L 0.9375 -8.25 Z M 2.4375 -9.609375 "/></g></g><g style="fill:#607d8b;fill-opacity:1;"><g transform="translate(47.165632, 47.956654)"><path style="stroke:none" d="M 7.625 -7.640625 L 7.625 0 L 6.953125 0 L 2.046875 -6.1875 L 2.046875 0 L 1.25 0 L 1.25 -7.640625 L 1.90625 -7.640625 L 6.828125 -1.4375 L 6.828125 -7.640625 Z M 7.625 -7.640625 "/></g></g><g style="fill:#607d8b;fill-opacity:1;"><g transform="translate(56.026122, 47.956654)"><path style="stroke:none" d="M 1.25 -7.640625 L 2.046875 -7.640625 L 2.046875 0 L 1.25 0 Z M 1.25 -7.640625 "/></g></g><g style="fill:#607d8b;fill-opacity:1;"><g transform="translate(59.317471, 47.956654)"><path style="stroke:none" d="M 4.5625 0.0625 C 3.800781 0.0625 3.117188 -0.101562 2.515625 -0.4375 C 1.910156 -0.769531 1.429688 -1.234375 1.078125 -1.828125 C 0.734375 -2.421875 0.5625 -3.082031 0.5625 -3.8125 C 0.5625 -4.550781 0.734375 -5.21875 1.078125 -5.8125 C 1.429688 -6.40625 1.910156 -6.867188 2.515625 -7.203125 C 3.128906 -7.535156 3.8125 -7.703125 4.5625 -7.703125 C 5.132812 -7.703125 5.660156 -7.601562 6.140625 -7.40625 C 6.617188 -7.21875 7.023438 -6.945312 7.359375 -6.59375 L 6.84375 -6.078125 C 6.25 -6.679688 5.5 -6.984375 4.59375 -6.984375 C 3.988281 -6.984375 3.4375 -6.84375 2.9375 -6.5625 C 2.445312 -6.289062 2.0625 -5.914062 1.78125 -5.4375 C 1.5 -4.957031 1.359375 -4.414062 1.359375 -3.8125 C 1.359375 -3.21875 1.5 -2.679688 1.78125 -2.203125 C 2.0625 -1.722656 2.445312 -1.34375 2.9375 -1.0625 C 3.4375 -0.789062 3.988281 -0.65625 4.59375 -0.65625 C 5.507812 -0.65625 6.257812 -0.960938 6.84375 -1.578125 L 7.359375 -1.0625 C 7.023438 -0.695312 6.613281 -0.414062 6.125 -0.21875 C 5.644531 -0.03125 5.125 0.0625 4.5625 0.0625 Z M 4.5625 0.0625 "/></g></g><g style="fill:#607d8b;fill-opacity:1;"><g transform="translate(67.153505, 47.956654)"><path style="stroke:none" d="M 6.03125 -2.046875 L 1.78125 -2.046875 L 0.859375 0 L 0.015625 0 L 3.515625 -7.640625 L 4.3125 -7.640625 L 7.796875 0 L 6.953125 0 Z M 5.734375 -2.6875 L 3.90625 -6.796875 L 2.078125 -2.6875 Z M 5.734375 -2.6875 "/></g></g><g style="fill:#607d8b;fill-opacity:1;"><g transform="translate(74.967744, 47.956654)"><path style="stroke:none" d=""/></g></g><g style="fill:#607d8b;fill-opacity:1;"><g transform="translate(77.823151, 47.956654)"><path style="stroke:none" d="M 1.25 -7.640625 L 4.359375 -7.640625 C 5.160156 -7.640625 5.867188 -7.472656 6.484375 -7.140625 C 7.109375 -6.816406 7.585938 -6.363281 7.921875 -5.78125 C 8.265625 -5.207031 8.4375 -4.550781 8.4375 -3.8125 C 8.4375 -3.070312 8.265625 -2.410156 7.921875 -1.828125 C 7.585938 -1.253906 7.109375 -0.804688 6.484375 -0.484375 C 5.867188 -0.160156 5.160156 0 4.359375 0 L 1.25 0 Z M 4.3125 -0.703125 C 4.976562 -0.703125 5.5625 -0.832031 6.0625 -1.09375 C 6.5625 -1.363281 6.945312 -1.734375 7.21875 -2.203125 C 7.5 -2.671875 7.640625 -3.207031 7.640625 -3.8125 C 7.640625 -4.425781 7.5 -4.96875 7.21875 -5.4375 C 6.945312 -5.90625 6.5625 -6.269531 6.0625 -6.53125 C 5.5625 -6.800781 4.976562 -6.9375 4.3125 -6.9375 L 2.046875 -6.9375 L 2.046875 -0.703125 Z M 4.3125 -0.703125 "/></g></g><g style="fill:#607d8b;fill-opacity:1;"><g transform="translate(86.825326, 47.956654)"><path style="stroke:none" d="M 6.640625 -0.703125 L 6.640625 0 L 1.25 0 L 1.25 -7.640625 L 6.484375 -7.640625 L 6.484375 -6.9375 L 2.046875 -6.9375 L 2.046875 -4.21875 L 6 -4.21875 L 6 -3.53125 L 2.046875 -3.53125 L 2.046875 -0.703125 Z M 6.640625 -0.703125 "/></g></g><g style="fill:#607d8b;fill-opacity:1;"><g transform="translate(94.116427, 47.956654)"><path style="stroke:none" d="M 7.625 -7.640625 L 7.625 0 L 6.953125 0 L 2.046875 -6.1875 L 2.046875 0 L 1.25 0 L 1.25 -7.640625 L 1.90625 -7.640625 L 6.828125 -1.4375 L 6.828125 -7.640625 Z M 7.625 -7.640625 "/></g></g><g style="fill:#607d8b;fill-opacity:1;"><g transform="translate(102.976917, 47.956654)"><path style="stroke:none" d="M 2.71875 -6.9375 L 0.046875 -6.9375 L 0.046875 -7.640625 L 6.21875 -7.640625 L 6.21875 -6.9375 L 3.53125 -6.9375 L 3.53125 0 L 2.71875 0 Z M 2.71875 -6.9375 "/></g></g><g style="fill:#607d8b;fill-opacity:1;"><g transform="translate(109.232664, 47.956654)"><path style="stroke:none" d="M 6.03125 -2.046875 L 1.78125 -2.046875 L 0.859375 0 L 0.015625 0 L 3.515625 -7.640625 L 4.3125 -7.640625 L 7.796875 0 L 6.953125 0 Z M 5.734375 -2.6875 L 3.90625 -6.796875 L 2.078125 -2.6875 Z M 5.734375 -2.6875 "/></g></g><g style="fill:#607d8b;fill-opacity:1;"><g transform="translate(117.046902, 47.956654)"><path style="stroke:none" d="M 1.25 -7.640625 L 2.046875 -7.640625 L 2.046875 -0.703125 L 6.328125 -0.703125 L 6.328125 0 L 1.25 0 Z M 1.25 -7.640625 "/></g></g></g></svg>